<svg width="14" height="14" viewBox="0 0 14 14" fill="none" xmlns="http://www.w3.org/2000/svg">
<mask id="mask0_3126_5452" style="mask-type:alpha" maskUnits="userSpaceOnUse" x="0" y="0" width="14" height="14">
<rect width="14" height="14" fill="#D9D9D9"/>
</mask>
<g mask="url(#mask0_3126_5452)">
<path d="M6.56217 7.43766H3.64551C3.52155 7.43766 3.41767 7.39571 3.33386 7.31181C3.24996 7.22791 3.20801 7.12398 3.20801 7.00002C3.20801 6.87596 3.24996 6.77208 3.33386 6.68837C3.41767 6.60457 3.52155 6.56266 3.64551 6.56266H6.56217V3.646C6.56217 3.52204 6.60413 3.41816 6.68803 3.33435C6.77193 3.25045 6.87586 3.2085 6.99982 3.2085C7.12388 3.2085 7.22776 3.25045 7.31147 3.33435C7.39527 3.41816 7.43717 3.52204 7.43717 3.646V6.56266H10.3538C10.4778 6.56266 10.5817 6.60461 10.6655 6.68852C10.7494 6.77242 10.7913 6.87635 10.7913 7.00031C10.7913 7.12436 10.7494 7.22825 10.6655 7.31195C10.5817 7.39576 10.4778 7.43766 10.3538 7.43766H7.43717V10.3543C7.43717 10.4783 7.39522 10.5822 7.31132 10.666C7.22742 10.7499 7.12349 10.7918 6.99953 10.7918C6.87547 10.7918 6.77159 10.7499 6.68788 10.666C6.60408 10.5822 6.56217 10.4783 6.56217 10.3543V7.43766Z" fill="white"/>
</g>
</svg>
