<svg width="33" height="32" viewBox="0 0 33 32" fill="none" xmlns="http://www.w3.org/2000/svg">
<rect x="0.94873" width="32" height="32" rx="16" fill="#24262B"/>
<mask id="mask0_1344_5078" style="mask-type:alpha" maskUnits="userSpaceOnUse" x="4" y="4" width="25" height="24">
<rect x="4.94873" y="4" width="24" height="24" fill="#D9D9D9"/>
</mask>
<g mask="url(#mask0_1344_5078)">
<path d="M16.1987 16.75H11.1987C10.9862 16.75 10.8081 16.6781 10.6645 16.5342C10.5206 16.3904 10.4487 16.2122 10.4487 15.9997C10.4487 15.7871 10.5206 15.609 10.6645 15.4655C10.8081 15.3218 10.9862 15.25 11.1987 15.25H16.1987V10.25C16.1987 10.0375 16.2706 9.85942 16.4145 9.71575C16.5583 9.57192 16.7365 9.5 16.949 9.5C17.1616 9.5 17.3397 9.57192 17.4832 9.71575C17.6269 9.85942 17.6987 10.0375 17.6987 10.25V15.25H22.6987C22.9112 15.25 23.0893 15.3219 23.233 15.4658C23.3768 15.6096 23.4487 15.7878 23.4487 16.0003C23.4487 16.2129 23.3768 16.391 23.233 16.5345C23.0893 16.6782 22.9112 16.75 22.6987 16.75H17.6987V21.75C17.6987 21.9625 17.6268 22.1406 17.483 22.2843C17.3391 22.4281 17.161 22.5 16.9485 22.5C16.7358 22.5 16.5577 22.4281 16.4142 22.2843C16.2706 22.1406 16.1987 21.9625 16.1987 21.75V16.75Z" fill="white"/>
</g>
</svg>
