<svg width="13" height="12" viewBox="0 0 13 12" fill="none" xmlns="http://www.w3.org/2000/svg">
<path d="M1.23593 11.6666C0.89915 11.6666 0.614095 11.5499 0.380762 11.3166C0.147428 11.0833 0.0307617 10.7982 0.0307617 10.4614V1.53842C0.0307617 1.20164 0.147428 0.916585 0.380762 0.683252C0.614095 0.449919 0.89915 0.333252 1.23593 0.333252H4.42826C4.76493 0.333252 5.04993 0.449919 5.28326 0.683252C5.51659 0.916585 5.63326 1.20164 5.63326 1.53842V10.4614C5.63326 10.7982 5.51659 11.0833 5.28326 11.3166C5.04993 11.5499 4.76493 11.6666 4.42826 11.6666H1.23593ZM8.29993 11.6666C7.96326 11.6666 7.67826 11.5499 7.44493 11.3166C7.21159 11.0833 7.09493 10.7982 7.09493 10.4614V1.53842C7.09493 1.20164 7.21159 0.916585 7.44493 0.683252C7.67826 0.449919 7.96326 0.333252 8.29993 0.333252H11.4923C11.829 0.333252 12.1141 0.449919 12.3474 0.683252C12.5808 0.916585 12.6974 1.20164 12.6974 1.53842V10.4614C12.6974 10.7982 12.5808 11.0833 12.3474 11.3166C12.1141 11.5499 11.829 11.6666 11.4923 11.6666H8.29993ZM1.23593 10.6666H4.42826C4.48804 10.6666 4.53715 10.6474 4.57559 10.6089C4.61415 10.5705 4.63343 10.5213 4.63343 10.4614V1.53842C4.63343 1.47853 4.61415 1.42936 4.57559 1.39092C4.53715 1.35247 4.48804 1.33325 4.42826 1.33325H1.23593C1.17604 1.33325 1.12687 1.35247 1.08843 1.39092C1.04998 1.42936 1.03076 1.47853 1.03076 1.53842V10.4614C1.03076 10.5213 1.04998 10.5705 1.08843 10.6089C1.12687 10.6474 1.17604 10.6666 1.23593 10.6666ZM8.29993 10.6666H11.4923C11.5522 10.6666 11.6013 10.6474 11.6398 10.6089C11.6782 10.5705 11.6974 10.5213 11.6974 10.4614V1.53842C11.6974 1.47853 11.6782 1.42936 11.6398 1.39092C11.6013 1.35247 11.5522 1.33325 11.4923 1.33325H8.29993C8.24015 1.33325 8.19104 1.35247 8.15259 1.39092C8.11404 1.42936 8.09476 1.47853 8.09476 1.53842V10.4614C8.09476 10.5213 8.11404 10.5705 8.15259 10.6089C8.19104 10.6474 8.24015 10.6666 8.29993 10.6666ZM3.82559 7.29475C3.82559 7.15286 3.77776 7.03408 3.68209 6.93842C3.58632 6.84264 3.46748 6.79475 3.3256 6.79475H2.32559C2.18371 6.79475 2.06493 6.84264 1.96926 6.93842C1.87348 7.03408 1.82559 7.15286 1.82559 7.29475C1.82559 7.43664 1.87348 7.55547 1.96926 7.65125C2.06493 7.74692 2.18371 7.79475 2.32559 7.79475H3.3256C3.46748 7.79475 3.58632 7.74692 3.68209 7.65125C3.77776 7.55547 3.82559 7.43664 3.82559 7.29475ZM10.9026 7.29475C10.9026 7.15286 10.8547 7.03408 10.7589 6.93842C10.6633 6.84264 10.5445 6.79475 10.4026 6.79475H9.39609C9.2542 6.79475 9.13648 6.84264 9.04293 6.93842C8.94937 7.03408 8.90259 7.15286 8.90259 7.29475C8.90259 7.43664 8.95043 7.55547 9.04609 7.65125C9.14187 7.74692 9.2607 7.79475 9.40259 7.79475H10.4026C10.5445 7.79475 10.6633 7.74692 10.7589 7.65125C10.8547 7.55547 10.9026 7.43664 10.9026 7.29475ZM3.82559 5.35892C3.82559 5.21703 3.77776 5.0982 3.68209 5.00242C3.58632 4.90675 3.46748 4.85892 3.3256 4.85892H2.32559C2.18371 4.85892 2.06493 4.90675 1.96926 5.00242C1.87348 5.0982 1.82559 5.21703 1.82559 5.35892C1.82559 5.50081 1.87348 5.61959 1.96926 5.71525C2.06493 5.81103 2.18371 5.85892 2.32559 5.85892H3.3256C3.46748 5.85892 3.58632 5.81103 3.68209 5.71525C3.77776 5.61959 3.82559 5.50081 3.82559 5.35892ZM10.9026 5.35892C10.9026 5.21703 10.8547 5.0982 10.7589 5.00242C10.6633 4.90675 10.5445 4.85892 10.4026 4.85892H9.39609C9.2542 4.85892 9.13648 4.90675 9.04293 5.00242C8.94937 5.0982 8.90259 5.21703 8.90259 5.35892C8.90259 5.50081 8.95043 5.61959 9.04609 5.71525C9.14187 5.81103 9.2607 5.85892 9.40259 5.85892H10.4026C10.5445 5.85892 10.6633 5.81103 10.7589 5.71525C10.8547 5.61959 10.9026 5.50081 10.9026 5.35892ZM3.82559 3.41659C3.82559 3.2747 3.77776 3.15592 3.68209 3.06025C3.58632 2.96447 3.46748 2.91659 3.3256 2.91659H2.32559C2.18371 2.91659 2.06493 2.96447 1.96926 3.06025C1.87348 3.15592 1.82559 3.2747 1.82559 3.41659C1.82559 3.55847 1.87348 3.67725 1.96926 3.77292C2.06493 3.8687 2.18371 3.91658 2.32559 3.91658H3.3256C3.46748 3.91658 3.58632 3.8687 3.68209 3.77292C3.77776 3.67725 3.82559 3.55847 3.82559 3.41659ZM10.9026 3.41659C10.9026 3.2747 10.8547 3.15592 10.7589 3.06025C10.6633 2.96447 10.5445 2.91659 10.4026 2.91659H9.39609C9.2542 2.91659 9.13648 2.96447 9.04293 3.06025C8.94937 3.15592 8.90259 3.2747 8.90259 3.41659C8.90259 3.55847 8.95043 3.67725 9.04609 3.77292C9.14187 3.8687 9.2607 3.91658 9.40259 3.91658H10.4026C10.5445 3.91658 10.6633 3.8687 10.7589 3.77292C10.8547 3.67725 10.9026 3.55847 10.9026 3.41659ZM1.23593 10.6666H1.03076H4.63343H1.23593ZM8.29993 10.6666H8.09476H11.6974H8.29993Z" fill="white"/>
</svg>
