<svg width="21" height="21" viewBox="0 0 21 21" fill="none" xmlns="http://www.w3.org/2000/svg">
<path fill-rule="evenodd" clip-rule="evenodd" d="M5.84709 0.708984H15.1861C18.5871 0.708984 20.5071 2.63798 20.5171 6.03898V15.379C20.5171 18.779 18.5871 20.709 15.1861 20.709H5.84709C2.44609 20.709 0.51709 18.779 0.51709 15.379V6.03898C0.51709 2.63798 2.44609 0.708984 5.84709 0.708984ZM10.5661 16.569C10.9971 16.569 11.3561 16.249 11.3961 15.819V5.62898C11.4361 5.31898 11.2871 5.00798 11.0171 4.83898C10.7361 4.66898 10.3961 4.66898 10.1271 4.83898C9.85609 5.00798 9.70709 5.31898 9.73609 5.62898V15.819C9.78709 16.249 10.1461 16.569 10.5661 16.569ZM15.1671 16.569C15.5871 16.569 15.9461 16.249 15.9971 15.819V12.539C16.0261 12.218 15.8771 11.919 15.6061 11.749C15.3371 11.579 14.9971 11.579 14.7171 11.749C14.4461 11.919 14.2971 12.218 14.3371 12.539V15.819C14.3771 16.249 14.7361 16.569 15.1671 16.569ZM6.73609 15.819C6.69609 16.249 6.33709 16.569 5.90609 16.569C5.47609 16.569 5.11609 16.249 5.07709 15.819V8.90898C5.04709 8.59798 5.19609 8.28898 5.46709 8.11898C5.73609 7.94898 6.07709 7.94898 6.34709 8.11898C6.61609 8.28898 6.76709 8.59798 6.73609 8.90898V15.819Z" fill="white"/>
</svg>
