<svg width="21" height="17" viewBox="0 0 21 17" fill="none" xmlns="http://www.w3.org/2000/svg">
<rect x="0.164307" y="0.577148" width="20" height="16" rx="8" fill="#4B4444" fill-opacity="0.35"/>
<path d="M6.46994 7.65499C6.40028 7.58534 6.34502 7.50266 6.30731 7.41165C6.26961 7.32064 6.25021 7.2231 6.25021 7.1246C6.25021 7.02609 6.26961 6.92855 6.30731 6.83755C6.34502 6.74654 6.40028 6.66385 6.46994 6.59421L9.46994 3.59421C9.61061 3.45354 9.80139 3.37451 10.0003 3.37451C10.1993 3.37451 10.3901 3.45354 10.5307 3.59421C10.6714 3.73488 10.7504 3.92566 10.7504 4.1246C10.7504 4.32353 10.6714 4.51432 10.5307 4.65499L7.53072 7.65499C7.46107 7.72465 7.37839 7.77991 7.28738 7.81761C7.19638 7.85531 7.09883 7.87472 7.00033 7.87472C6.90182 7.87472 6.80428 7.85531 6.71328 7.81761C6.62227 7.77991 6.53958 7.72465 6.46994 7.65499ZM15.4057 8.46921C15.3361 8.39954 15.2534 8.34429 15.1624 8.30658C15.0714 8.26888 14.9738 8.24948 14.8753 8.24948C14.7768 8.24948 14.6793 8.26888 14.5883 8.30658C14.4973 8.34429 14.4146 8.39954 14.3449 8.46921L11.3449 11.4692C11.2753 11.5389 11.22 11.6215 11.1823 11.7125C11.1446 11.8035 11.1252 11.9011 11.1252 11.9996C11.1252 12.0981 11.1446 12.1956 11.1823 12.2866C11.22 12.3777 11.2753 12.4603 11.3449 12.53C11.4146 12.5996 11.4973 12.6549 11.5883 12.6926C11.6793 12.7303 11.7768 12.7497 11.8753 12.7497C11.9738 12.7497 12.0714 12.7303 12.1624 12.6926C12.2534 12.6549 12.3361 12.5996 12.4057 12.53L15.4057 9.52999C15.4754 9.46034 15.5306 9.37765 15.5683 9.28665C15.606 9.19564 15.6255 9.0981 15.6255 8.9996C15.6255 8.90109 15.606 8.80355 15.5683 8.71255C15.5306 8.62154 15.4754 8.53885 15.4057 8.46921ZM13.7599 7.72858L11.2713 5.23999C11.2539 5.22256 11.2333 5.20873 11.2105 5.19929C11.1877 5.18985 11.1633 5.185 11.1387 5.185C11.114 5.185 11.0896 5.18985 11.0669 5.19929C11.0441 5.20873 11.0234 5.22256 11.006 5.23999L8.11572 8.1303C8.09829 8.14771 8.08446 8.16839 8.07502 8.19116C8.06559 8.21392 8.06073 8.23832 8.06073 8.26296C8.06073 8.2876 8.06559 8.312 8.07502 8.33476C8.08446 8.35752 8.09829 8.3782 8.11572 8.39561L8.82822 9.10952L5.34494 12.5947C5.21022 12.7365 5.13623 12.9253 5.13873 13.1209C5.14124 13.3164 5.22004 13.5033 5.35834 13.6416C5.49664 13.7799 5.6835 13.8587 5.87907 13.8612C6.07464 13.8637 6.26345 13.7897 6.40525 13.655L9.89041 10.1717L10.6043 10.8856C10.6217 10.903 10.6424 10.9169 10.6652 10.9263C10.6879 10.9357 10.7123 10.9406 10.737 10.9406C10.7616 10.9406 10.786 10.9357 10.8088 10.9263C10.8315 10.9169 10.8522 10.903 10.8696 10.8856L13.7599 7.9953C13.7776 7.97786 13.7916 7.95709 13.8012 7.9342C13.8107 7.91131 13.8156 7.88675 13.8156 7.86194C13.8156 7.83713 13.8107 7.81257 13.8012 7.78968C13.7916 7.76679 13.7776 7.74602 13.7599 7.72858Z" fill="white"/>
</svg>
