<svg width="25" height="24" viewBox="0 0 25 24" fill="none" xmlns="http://www.w3.org/2000/svg">
<path fill-rule="evenodd" clip-rule="evenodd" d="M5.06774 2H8.44774C9.85774 2 10.9877 3.15 10.9877 4.561V7.97C10.9877 9.39 9.85774 10.53 8.44774 10.53H5.06774C3.66774 10.53 2.52774 9.39 2.52774 7.97V4.561C2.52774 3.15 3.66774 2 5.06774 2ZM5.06774 13.4697H8.44774C9.85774 13.4697 10.9877 14.6107 10.9877 16.0307V19.4397C10.9877 20.8497 9.85774 21.9997 8.44774 21.9997H5.06774C3.66774 21.9997 2.52774 20.8497 2.52774 19.4397V16.0307C2.52774 14.6107 3.66774 13.4697 5.06774 13.4697ZM19.9878 2H16.6078C15.1978 2 14.0678 3.15 14.0678 4.561V7.97C14.0678 9.39 15.1978 10.53 16.6078 10.53H19.9878C21.3878 10.53 22.5278 9.39 22.5278 7.97V4.561C22.5278 3.15 21.3878 2 19.9878 2ZM16.6078 13.4697H19.9878C21.3878 13.4697 22.5278 14.6107 22.5278 16.0307V19.4397C22.5278 20.8497 21.3878 21.9997 19.9878 21.9997H16.6078C15.1978 21.9997 14.0678 20.8497 14.0678 19.4397V16.0307C14.0678 14.6107 15.1978 13.4697 16.6078 13.4697Z" fill="white"/>
</svg>
