<svg width="25" height="24" viewBox="0 0 25 24" fill="none" xmlns="http://www.w3.org/2000/svg">
<path fill-rule="evenodd" clip-rule="evenodd" d="M5.52584 2H8.90584C10.3158 2 11.4458 3.15 11.4458 4.561V7.97C11.4458 9.39 10.3158 10.53 8.90584 10.53H5.52584C4.12584 10.53 2.98584 9.39 2.98584 7.97V4.561C2.98584 3.15 4.12584 2 5.52584 2ZM5.52584 13.4697H8.90584C10.3158 13.4697 11.4458 14.6107 11.4458 16.0307V19.4397C11.4458 20.8497 10.3158 21.9997 8.90584 21.9997H5.52584C4.12584 21.9997 2.98584 20.8497 2.98584 19.4397V16.0307C2.98584 14.6107 4.12584 13.4697 5.52584 13.4697ZM20.4459 2H17.0659C15.6559 2 14.5259 3.15 14.5259 4.561V7.97C14.5259 9.39 15.6559 10.53 17.0659 10.53H20.4459C21.8459 10.53 22.9859 9.39 22.9859 7.97V4.561C22.9859 3.15 21.8459 2 20.4459 2ZM17.0659 13.4697H20.4459C21.8459 13.4697 22.9859 14.6107 22.9859 16.0307V19.4397C22.9859 20.8497 21.8459 21.9997 20.4459 21.9997H17.0659C15.6559 21.9997 14.5259 20.8497 14.5259 19.4397V16.0307C14.5259 14.6107 15.6559 13.4697 17.0659 13.4697Z" fill="#A0A0A0"/>
</svg>
