<svg width="25" height="24" viewBox="0 0 25 24" fill="none" xmlns="http://www.w3.org/2000/svg">
<rect x="0.5" width="24" height="24" rx="12" fill="#111214"/>
<mask id="mask0_1317_2981" style="mask-type:alpha" maskUnits="userSpaceOnUse" x="5" y="4" width="15" height="15">
<rect x="5.5" y="4.70898" width="14" height="14" fill="#D9D9D9"/>
</mask>
<g mask="url(#mask0_1317_2981)">
<path d="M11.5946 13.8011L14.5101 11.9344C14.5902 11.8799 14.6303 11.8047 14.6303 11.709C14.6303 11.6132 14.5902 11.5381 14.5101 11.4835L11.5946 9.61686C11.5048 9.55629 11.4146 9.55143 11.3238 9.60228C11.2329 9.65312 11.1874 9.73129 11.1874 9.83678V13.5812C11.1874 13.6867 11.2329 13.7648 11.3238 13.8157C11.4146 13.8665 11.5048 13.8617 11.5946 13.8011ZM8.01277 16.084C7.71809 16.084 7.46867 15.9819 7.2645 15.7777C7.06034 15.5736 6.95825 15.3241 6.95825 15.0295V8.38851C6.95825 8.09382 7.06034 7.8444 7.2645 7.64023C7.46867 7.43607 7.71809 7.33398 8.01277 7.33398H16.9871C17.2817 7.33398 17.5312 7.43607 17.7353 7.64023C17.9395 7.8444 18.0416 8.09382 18.0416 8.38851V15.0295C18.0416 15.3241 17.9395 15.5736 17.7353 15.7777C17.5312 15.9819 17.2817 16.084 16.9871 16.084H8.01277ZM8.01277 15.209H16.9871C17.032 15.209 17.0731 15.1903 17.1104 15.1528C17.1479 15.1155 17.1666 15.0744 17.1666 15.0295V8.38851C17.1666 8.34359 17.1479 8.30246 17.1104 8.26513C17.0731 8.2277 17.032 8.20898 16.9871 8.20898H8.01277C7.96786 8.20898 7.92673 8.2277 7.8894 8.26513C7.85197 8.30246 7.83325 8.34359 7.83325 8.38851V15.0295C7.83325 15.0744 7.85197 15.1155 7.8894 15.1528C7.92673 15.1903 7.96786 15.209 8.01277 15.209Z" fill="#FF7A63"/>
</g>
</svg>
