<svg width="14" height="12" viewBox="0 0 14 12" fill="none" xmlns="http://www.w3.org/2000/svg">
<path d="M2.74612 11.8334C2.40946 11.8334 2.12446 11.7167 1.89112 11.4834C1.65779 11.2501 1.54112 10.965 1.54112 10.6282V5.30258C1.27268 5.08214 1.07118 4.79603 0.936623 4.44425C0.801957 4.09258 0.799179 3.71291 0.92829 3.30525L1.60262 1.10258C1.69151 0.822248 1.84235 0.596193 2.05512 0.424415C2.26801 0.252637 2.52229 0.166748 2.81796 0.166748H11.918C12.2137 0.166748 12.4663 0.248804 12.6756 0.412915C12.8851 0.577026 13.0376 0.802693 13.1333 1.08991L13.8205 3.30525C13.9496 3.71291 13.9468 4.0913 13.8121 4.44041C13.6776 4.78964 13.4761 5.0813 13.2076 5.31541V10.6282C13.2076 10.965 13.091 11.2501 12.8576 11.4834C12.6243 11.7167 12.3393 11.8334 12.0026 11.8334H2.74612ZM8.84112 4.83341C9.20524 4.83341 9.47896 4.72208 9.66229 4.49941C9.84562 4.27675 9.92062 4.03764 9.88729 3.78208L9.48212 1.16675H7.87429V3.80008C7.87429 4.08041 7.96918 4.32275 8.15896 4.52708C8.34874 4.7313 8.57612 4.83341 8.84112 4.83341ZM5.84112 4.83341C6.1479 4.83341 6.39679 4.7313 6.58779 4.52708C6.7789 4.32275 6.87446 4.08041 6.87446 3.80008V1.16675H5.26662L4.86162 3.80775C4.82562 4.04453 4.89996 4.27469 5.08462 4.49825C5.26929 4.72169 5.52146 4.83341 5.84112 4.83341ZM2.87446 4.83341C3.12146 4.83341 3.33385 4.7473 3.51162 4.57508C3.6894 4.40286 3.79923 4.18641 3.84112 3.92575L4.23329 1.16675H2.81796C2.74529 1.16675 2.68762 1.18275 2.64496 1.21475C2.60218 1.24686 2.57012 1.29497 2.54879 1.35908L1.90762 3.52825C1.81962 3.81458 1.86112 4.10369 2.03212 4.39558C2.20301 4.68747 2.48379 4.83341 2.87446 4.83341ZM11.8745 4.83341C12.2351 4.83341 12.5112 4.69175 12.7026 4.40841C12.8941 4.12508 12.9402 3.83169 12.8411 3.52825L12.1666 1.34625C12.1453 1.28214 12.1133 1.23619 12.0706 1.20841C12.0278 1.18064 11.9701 1.16675 11.8975 1.16675H10.5155L10.9076 3.92575C10.9495 4.18641 11.0593 4.40286 11.2371 4.57508C11.4149 4.7473 11.6273 4.83341 11.8745 4.83341ZM2.74612 10.8334H12.0026C12.0624 10.8334 12.1115 10.8142 12.15 10.7757C12.1885 10.7373 12.2078 10.6881 12.2078 10.6282V5.77441C12.1351 5.80097 12.0744 5.81741 12.0256 5.82375C11.977 5.83019 11.9266 5.83341 11.8745 5.83341C11.5745 5.83341 11.3106 5.77914 11.0828 5.67058C10.855 5.56203 10.6342 5.38808 10.4205 5.14875C10.2333 5.3573 10.012 5.52358 9.75646 5.64758C9.5009 5.77147 9.20946 5.83341 8.88212 5.83341C8.59924 5.83341 8.33257 5.77464 8.08212 5.65708C7.83168 5.53964 7.59579 5.37019 7.37446 5.14875C7.16846 5.37019 6.93512 5.53964 6.67446 5.65708C6.41368 5.77464 6.14957 5.83341 5.88212 5.83341C5.58123 5.83341 5.29918 5.77891 5.03596 5.66991C4.77273 5.56091 4.54112 5.38719 4.34112 5.14875C4.06068 5.42908 3.80229 5.6133 3.56596 5.70141C3.32973 5.78941 3.09923 5.83341 2.87446 5.83341C2.82223 5.83341 2.76835 5.83019 2.71279 5.82375C2.65723 5.81741 2.59996 5.80097 2.54096 5.77441V10.6282C2.54096 10.6881 2.56023 10.7373 2.59879 10.7757C2.63723 10.8142 2.68635 10.8334 2.74612 10.8334Z" fill="white"/>
</svg>
