<svg width="16" height="19" viewBox="0 0 16 19" fill="none" xmlns="http://www.w3.org/2000/svg">
<path d="M8.33602 16.3717L3.70523 18.3594C3.00231 18.66 2.33449 18.6024 1.70177 18.1867C1.06905 17.771 0.752686 17.1862 0.752686 16.4323V2.19229C0.752686 1.60293 0.956852 1.10409 1.36519 0.695752C1.77352 0.287419 2.27237 0.083252 2.86173 0.083252H13.8103C14.3997 0.083252 14.8985 0.287419 15.3069 0.695752C15.7152 1.10409 15.9194 1.60293 15.9194 2.19229V16.4323C15.9194 17.1862 15.603 17.771 14.9703 18.1867C14.3375 18.6024 13.6697 18.66 12.9668 18.3594L8.33602 16.3717ZM8.33602 14.4333L13.6645 16.7284C13.7843 16.7807 13.8983 16.7695 14.0066 16.6948C14.1151 16.62 14.1694 16.519 14.1694 16.3918V2.19229C14.1694 2.10246 14.1319 2.02021 14.0571 1.94554C13.9824 1.87068 13.9001 1.83325 13.8103 1.83325H2.86173C2.77189 1.83325 2.68964 1.87068 2.61498 1.94554C2.54012 2.02021 2.50269 2.10246 2.50269 2.19229V16.3918C2.50269 16.519 2.55694 16.62 2.66544 16.6948C2.77374 16.7695 2.88778 16.7807 3.00756 16.7284L8.33602 14.4333Z" fill="#148AB0"/>
</svg>
