<svg width="22" height="18" viewBox="0 0 22 18" fill="none" xmlns="http://www.w3.org/2000/svg">
<path d="M16.1236 11.6924L20.3662 8.04653L20.8329 8.08241C21.0894 8.11294 21.2892 8.21959 21.4326 8.40237C21.5757 8.58515 21.6472 8.78319 21.6472 8.99649C21.6472 9.11841 21.6245 9.23809 21.579 9.35553C21.5335 9.47317 21.4501 9.57603 21.3287 9.66412L18.2056 12.3857L19.1436 16.469C19.1554 16.4991 19.1613 16.5332 19.1613 16.5711V16.6732C19.1613 16.9304 19.0728 17.1446 18.8956 17.3157C18.7183 17.487 18.5078 17.5727 18.2642 17.5727C18.188 17.5727 18.1079 17.5637 18.0241 17.5458C17.9403 17.5279 17.861 17.4935 17.7861 17.4426L17.4093 17.2092L16.1236 11.6924ZM13.6401 3.9947L12.46 1.22591L12.6216 0.831283C12.6957 0.648116 12.8107 0.506949 12.9666 0.407782C13.1224 0.308616 13.2843 0.259033 13.4523 0.259033C13.6203 0.259033 13.7844 0.306185 13.9446 0.400491C14.105 0.494602 14.2227 0.632172 14.2975 0.8132L15.722 4.18983L13.6401 3.9947ZM5.91093 14.6292L9.58593 12.4125L13.2609 14.6583L12.2984 10.4583L15.5359 7.65833L11.2776 7.27916L9.58593 3.31249L7.89427 7.24999L3.63593 7.62916L6.87343 10.4583L5.91093 14.6292ZM3.81327 15.8632L4.92831 11.091L1.22414 7.88058C1.09095 7.7713 0.998195 7.64763 0.94589 7.50958C0.893584 7.37152 0.867432 7.23337 0.867432 7.09512C0.867432 6.84778 0.952307 6.61805 1.12206 6.40591C1.29181 6.19396 1.52699 6.07224 1.8276 6.04074L6.71739 5.61141L8.60768 1.11624C8.69557 0.90527 8.83178 0.747089 9.01631 0.6417C9.20083 0.536116 9.38974 0.483325 9.58302 0.483325C9.77649 0.483325 9.96617 0.536116 10.1521 0.6417C10.3381 0.747089 10.4755 0.90527 10.5642 1.11624L12.4545 5.61141L17.3443 6.04074C17.6449 6.07224 17.8801 6.19387 18.0498 6.40562C18.2196 6.61756 18.3044 6.8471 18.3044 7.09424C18.3044 7.23541 18.2783 7.37444 18.226 7.51133C18.1737 7.64822 18.0809 7.7713 17.9477 7.88058L14.2436 11.091L15.3624 15.8635C15.3793 15.914 15.3878 15.9923 15.3878 16.0983C15.3878 16.3985 15.2826 16.6501 15.0722 16.8531C14.8618 17.0561 14.6164 17.1576 14.336 17.1576C14.2833 17.1576 14.0969 17.103 13.7769 16.9937L9.58593 14.4699L5.39497 16.9937C5.30514 17.0446 5.2119 17.0847 5.11526 17.1139C5.01863 17.143 4.92636 17.1576 4.83847 17.1576C4.52211 17.1576 4.2497 17.0298 4.02122 16.7741C3.79275 16.5182 3.72343 16.2146 3.81327 15.8632Z" fill="#6FD299"/>
</svg>
