<svg width="25" height="25" viewBox="0 0 25 25" fill="none" xmlns="http://www.w3.org/2000/svg">
<mask id="mask0_1009_1893" style="mask-type:alpha" maskUnits="userSpaceOnUse" x="0" y="0" width="25" height="25">
<rect x="0.259033" y="0.5" width="24" height="24" fill="#D9D9D9"/>
</mask>
<g mask="url(#mask0_1009_1893)">
<path d="M4.56678 21C4.06812 21 3.64212 20.8234 3.28878 20.4703C2.93562 20.1169 2.75903 19.6909 2.75903 19.1923V8.80775C2.75903 8.30908 2.93562 7.88308 3.28878 7.52975C3.64212 7.17658 4.06812 7 4.56678 7H8.75903V5.30775C8.75903 4.80908 8.93562 4.38317 9.28878 4.03C9.64212 3.67667 10.0681 3.5 10.5668 3.5H13.9513C14.45 3.5 14.8759 3.67667 15.2293 4.03C15.5824 4.38317 15.759 4.80908 15.759 5.30775V7H19.9513C20.45 7 20.876 7.17658 21.2293 7.52975C21.5825 7.88308 21.759 8.30908 21.759 8.80775V19.1923C21.759 19.6909 21.5825 20.1169 21.2293 20.4703C20.876 20.8234 20.45 21 19.9513 21H4.56678ZM10.259 7H14.259V5.30775C14.259 5.23075 14.227 5.16025 14.1628 5.09625C14.0988 5.03208 14.0283 5 13.9513 5H10.5668C10.4898 5 10.4193 5.03208 10.3553 5.09625C10.2911 5.16025 10.259 5.23075 10.259 5.30775V7ZM6.75903 8.5H4.56678C4.48978 8.5 4.41928 8.53208 4.35528 8.59625C4.29112 8.66025 4.25903 8.73075 4.25903 8.80775V19.1923C4.25903 19.2692 4.29112 19.3398 4.35528 19.4038C4.41928 19.4679 4.48978 19.5 4.56678 19.5H6.75903V8.5ZM16.259 19.5V8.5H8.25903V19.5H16.259ZM17.759 8.5V19.5H19.9513C20.0283 19.5 20.0988 19.4679 20.1628 19.4038C20.227 19.3398 20.259 19.2692 20.259 19.1923V8.80775C20.259 8.73075 20.227 8.66025 20.1628 8.59625C20.0988 8.53208 20.0283 8.5 19.9513 8.5H17.759Z" fill="white"/>
</g>
</svg>
