<svg width="19" height="20" viewBox="0 0 19 20" fill="none" xmlns="http://www.w3.org/2000/svg">
<path d="M9.38028 0C12.0602 0 14.2636 2.106 14.3754 4.77441H14.349C14.3522 4.85191 14.3378 4.92919 14.3061 5H14.4623C15.726 5.00022 17.0516 5.90996 17.5199 8.12012L18.2885 14.3145C18.8541 18.3533 16.5827 20 13.5336 20H5.24356C2.18583 19.9999 -0.156413 18.8625 0.47989 14.3145L1.25821 8.12012C1.65591 5.84605 3.02556 5.00003 4.30704 5H4.38516C4.37199 4.92539 4.372 4.84902 4.38516 4.77441C4.497 2.10602 6.70036 3.1975e-05 9.38028 0ZM6.47208 8.3291C5.98412 8.32928 5.58829 8.73699 5.58829 9.23926C5.58846 9.74138 5.98423 10.1483 6.47208 10.1484C6.96008 10.1484 7.3557 9.74149 7.35587 9.23926C7.35587 8.73688 6.96018 8.3291 6.47208 8.3291ZM12.2611 8.3291C11.7731 8.32914 11.3774 8.7369 11.3774 9.23926C11.3775 9.74146 11.7732 10.1484 12.2611 10.1484C12.7491 10.1484 13.1448 9.74149 13.1449 9.23926C13.1449 8.73688 12.7492 8.3291 12.2611 8.3291ZM9.34122 1.30273C7.41711 1.30273 5.85684 2.85691 5.85684 4.77441C5.87002 4.84906 5.87003 4.92535 5.85684 5H12.8686C12.8407 4.92797 12.8256 4.85158 12.8246 4.77441C12.8246 2.85694 11.2653 1.30277 9.34122 1.30273Z" fill="#FFFFFF"/>
</svg>
