<svg width="25" height="25" viewBox="0 0 25 25" fill="none" xmlns="http://www.w3.org/2000/svg">
<mask id="mask0_1344_5103" style="mask-type:alpha" maskUnits="userSpaceOnUse" x="0" y="0" width="25" height="25">
<rect x="0.652588" y="0.0722656" width="24" height="24" fill="#D9D9D9"/>
</mask>
<g mask="url(#mask0_1344_5103)">
<path d="M12.6526 13.4723L15.5526 16.3723C15.7359 16.5556 15.9693 16.6473 16.2526 16.6473C16.5359 16.6473 16.7693 16.5556 16.9526 16.3723C17.1359 16.1889 17.2276 15.9556 17.2276 15.6723C17.2276 15.3889 17.1359 15.1556 16.9526 14.9723L14.0526 12.0723L16.9526 9.17227C17.1359 8.98893 17.2276 8.7556 17.2276 8.47227C17.2276 8.18893 17.1359 7.9556 16.9526 7.77227C16.7693 7.58893 16.5359 7.49727 16.2526 7.49727C15.9693 7.49727 15.7359 7.58893 15.5526 7.77227L12.6526 10.6723L9.75259 7.77227C9.56925 7.58893 9.33592 7.49727 9.05259 7.49727C8.76925 7.49727 8.53592 7.58893 8.35259 7.77227C8.16925 7.9556 8.07759 8.18893 8.07759 8.47227C8.07759 8.7556 8.16925 8.98893 8.35259 9.17227L11.2526 12.0723L8.35259 14.9723C8.16925 15.1556 8.07759 15.3889 8.07759 15.6723C8.07759 15.9556 8.16925 16.1889 8.35259 16.3723C8.53592 16.5556 8.76925 16.6473 9.05259 16.6473C9.33592 16.6473 9.56925 16.5556 9.75259 16.3723L12.6526 13.4723ZM12.6526 22.0723C11.2693 22.0723 9.96925 21.8098 8.75259 21.2848C7.53592 20.7598 6.47759 20.0473 5.57759 19.1473C4.67759 18.2473 3.96509 17.1889 3.44009 15.9723C2.91509 14.7556 2.65259 13.4556 2.65259 12.0723C2.65259 10.6889 2.91509 9.38893 3.44009 8.17227C3.96509 6.9556 4.67759 5.89727 5.57759 4.99727C6.47759 4.09727 7.53592 3.38477 8.75259 2.85977C9.96925 2.33477 11.2693 2.07227 12.6526 2.07227C14.0359 2.07227 15.3359 2.33477 16.5526 2.85977C17.7693 3.38477 18.8276 4.09727 19.7276 4.99727C20.6276 5.89727 21.3401 6.9556 21.8651 8.17227C22.3901 9.38893 22.6526 10.6889 22.6526 12.0723C22.6526 13.4556 22.3901 14.7556 21.8651 15.9723C21.3401 17.1889 20.6276 18.2473 19.7276 19.1473C18.8276 20.0473 17.7693 20.7598 16.5526 21.2848C15.3359 21.8098 14.0359 22.0723 12.6526 22.0723Z" fill="#FF3B30"/>
</g>
<mask id="mask1_1344_5103" style="mask-type:alpha" maskUnits="userSpaceOnUse" x="3" y="3" width="19" height="19">
<rect x="3.65259" y="3.07227" width="18" height="18" fill="#D9D9D9"/>
</mask>
<g mask="url(#mask1_1344_5103)">
<path d="M12.6525 13.4607L9.14704 16.966C8.96016 17.153 8.72866 17.2465 8.45254 17.2465C8.17641 17.2465 7.94491 17.153 7.75804 16.966C7.57104 16.7791 7.47754 16.5476 7.47754 16.2715C7.47754 15.9954 7.57104 15.7639 7.75804 15.577L11.2634 12.0715L7.75804 8.56598C7.57104 8.37911 7.47754 8.14761 7.47754 7.87148C7.47754 7.59536 7.57104 7.36386 7.75804 7.17698C7.94491 6.98998 8.17641 6.89648 8.45254 6.89648C8.72866 6.89648 8.96016 6.98998 9.14704 7.17698L12.6525 10.6823L16.158 7.17698C16.3449 6.98998 16.5764 6.89648 16.8525 6.89648C17.1287 6.89648 17.3602 6.98998 17.547 7.17698C17.734 7.36386 17.8275 7.59536 17.8275 7.87148C17.8275 8.14761 17.734 8.37911 17.547 8.56598L14.0417 12.0715L17.547 15.577C17.734 15.7639 17.8275 15.9954 17.8275 16.2715C17.8275 16.5476 17.734 16.7791 17.547 16.966C17.3602 17.153 17.1287 17.2465 16.8525 17.2465C16.5764 17.2465 16.3449 17.153 16.158 16.966L12.6525 13.4607Z" fill="#FAF9FF"/>
</g>
</svg>
