<svg width="25" height="24" viewBox="0 0 25 24" fill="none" xmlns="http://www.w3.org/2000/svg">
<path fill-rule="evenodd" clip-rule="evenodd" d="M14.3859 11.2331H17.1538C17.5735 11.2331 17.9032 10.8861 17.9032 10.4677C17.9032 10.0391 17.5735 9.70236 17.1538 9.70236H14.3859C13.9663 9.70236 13.6365 10.0391 13.6365 10.4677C13.6365 10.8861 13.9663 11.2331 14.3859 11.2331ZM20.4412 5.92749C21.0508 5.92749 21.4504 6.1418 21.8501 6.61123C22.2498 7.08067 22.3198 7.7542 22.2298 8.36549L21.2806 15.06C21.1007 16.3469 20.0216 17.2949 18.7525 17.2949H7.85104C6.52207 17.2949 5.42293 16.255 5.31301 14.908L4.39373 3.7834L2.88491 3.51807C2.48522 3.44664 2.20544 3.04864 2.27538 2.64043C2.34533 2.22305 2.73502 1.94649 3.1447 2.00874L5.52785 2.3751C5.86758 2.43735 6.11739 2.72207 6.14736 3.06905L6.33722 5.35499C6.36719 5.68257 6.62699 5.92749 6.94674 5.92749H20.4412ZM7.69096 18.9079C6.85162 18.9079 6.17215 19.6018 6.17215 20.459C6.17215 21.3061 6.85162 22 7.69096 22C8.52032 22 9.19979 21.3061 9.19979 20.459C9.19979 19.6018 8.52032 18.9079 7.69096 18.9079ZM18.9322 18.9079C18.0929 18.9079 17.4134 19.6018 17.4134 20.459C17.4134 21.3061 18.0929 22 18.9322 22C19.7616 22 20.441 21.3061 20.441 20.459C20.441 19.6018 19.7616 18.9079 18.9322 18.9079Z" fill="#A0A0A0"/>
</svg>
