<svg width="21" height="21" viewBox="0 0 21 21" fill="none" xmlns="http://www.w3.org/2000/svg">
<path fill-rule="evenodd" clip-rule="evenodd" d="M0.516602 10.724C0.516602 5.4561 4.7266 0.708984 10.5366 0.708984C16.2166 0.708984 20.5166 5.36597 20.5166 10.694C20.5166 16.8732 15.4766 20.709 10.5166 20.709C8.8766 20.709 7.0566 20.2683 5.5966 19.407C5.0866 19.0966 4.6566 18.8662 4.1066 19.0465L2.0866 19.6474C1.5766 19.8076 1.1166 19.407 1.2666 18.8662L1.9366 16.6229C2.0466 16.3124 2.0266 15.9819 1.8666 15.7215C1.0066 14.1391 0.516602 12.4065 0.516602 10.724ZM9.2166 10.724C9.2166 11.4351 9.7866 12.0059 10.4966 12.0159C11.2066 12.0159 11.7766 11.4351 11.7766 10.734C11.7766 10.023 11.2066 9.4521 10.4966 9.4521C9.7966 9.44208 9.2166 10.023 9.2166 10.724ZM13.8266 10.734C13.8266 11.4351 14.3966 12.0159 15.1066 12.0159C15.8166 12.0159 16.3866 11.4351 16.3866 10.734C16.3866 10.023 15.8166 9.4521 15.1066 9.4521C14.3966 9.4521 13.8266 10.023 13.8266 10.734ZM5.8866 12.0159C5.1866 12.0159 4.6066 11.4351 4.6066 10.734C4.6066 10.023 5.1766 9.4521 5.8866 9.4521C6.5966 9.4521 7.1666 10.023 7.1666 10.734C7.1666 11.4351 6.5966 12.0059 5.8866 12.0159Z" fill="white"/>
</svg>
