<svg width="17" height="18" viewBox="0 0 17 18" fill="none" xmlns="http://www.w3.org/2000/svg">
<path d="M8.46012 10.8864L9.93929 11.7887C10.0761 11.8752 10.2142 11.8704 10.3535 11.7741C10.4929 11.678 10.5445 11.5477 10.5082 11.3831L10.1155 9.69079L11.4362 8.54975C11.5644 8.43544 11.602 8.30086 11.5491 8.146C11.4962 7.99114 11.3832 7.90676 11.2101 7.89287L9.48408 7.74704L8.80304 6.15891C8.73901 6.00822 8.62471 5.93287 8.46012 5.93287C8.29554 5.93287 8.18124 6.00822 8.11721 6.15891L7.43617 7.74704L5.71012 7.89287C5.53707 7.90676 5.42408 7.99114 5.37117 8.146C5.31825 8.30086 5.35589 8.43544 5.48408 8.54975L6.80471 9.69079L6.412 11.3831C6.37575 11.5477 6.42735 11.678 6.56679 11.7741C6.7061 11.8704 6.84415 11.8752 6.98096 11.7887L8.46012 10.8864ZM5.84471 15.2502H3.71658C3.30103 15.2502 2.94603 15.103 2.65158 14.8087C2.35728 14.5143 2.21012 14.1593 2.21012 13.7437V11.6156L0.661999 10.0545C0.519915 9.90398 0.412554 9.73738 0.339915 9.55475C0.267277 9.37197 0.230957 9.18711 0.230957 9.00016C0.230957 8.81322 0.267277 8.62836 0.339915 8.44558C0.412554 8.26294 0.519915 8.09634 0.661999 7.94579L2.21012 6.38475V4.25662C2.21012 3.84107 2.35728 3.48607 2.65158 3.19162C2.94603 2.89732 3.30103 2.75016 3.71658 2.75016H5.84471L7.40575 1.20204C7.55631 1.05995 7.7229 0.952593 7.90554 0.879954C8.08832 0.807315 8.27318 0.770996 8.46012 0.770996C8.64707 0.770996 8.83193 0.807315 9.01471 0.879954C9.19735 0.952593 9.36394 1.05995 9.5145 1.20204L11.0755 2.75016H13.2037C13.6192 2.75016 13.9742 2.89732 14.2687 3.19162C14.563 3.48607 14.7101 3.84107 14.7101 4.25662V6.38475L16.2582 7.94579C16.4003 8.09634 16.5077 8.26294 16.5803 8.44558C16.653 8.62836 16.6893 8.81322 16.6893 9.00016C16.6893 9.18711 16.653 9.37197 16.5803 9.55475C16.5077 9.73738 16.4003 9.90398 16.2582 10.0545L14.7101 11.6156V13.7437C14.7101 14.1593 14.563 14.5143 14.2687 14.8087C13.9742 15.103 13.6192 15.2502 13.2037 15.2502H11.0755L9.5145 16.7983C9.36394 16.9404 9.19735 17.0477 9.01471 17.1204C8.83193 17.193 8.64707 17.2293 8.46012 17.2293C8.27318 17.2293 8.08832 17.193 7.90554 17.1204C7.7229 17.0477 7.55631 16.9404 7.40575 16.7983L5.84471 15.2502ZM6.37679 14.0002L8.27575 15.8991C8.3238 15.9472 8.38526 15.9712 8.46012 15.9712C8.53499 15.9712 8.59644 15.9472 8.6445 15.8991L10.5435 14.0002H13.2037C13.2785 14.0002 13.34 13.9761 13.388 13.9281C13.4361 13.88 13.4601 13.8186 13.4601 13.7437V11.0835L15.3591 9.18454C15.4071 9.13648 15.4312 9.07502 15.4312 9.00016C15.4312 8.9253 15.4071 8.86384 15.3591 8.81579L13.4601 6.91683V4.25662C13.4601 4.18176 13.4361 4.1203 13.388 4.07225C13.34 4.02419 13.2785 4.00016 13.2037 4.00016H10.5435L8.6445 2.1012C8.59644 2.05315 8.53499 2.02912 8.46012 2.02912C8.38526 2.02912 8.3238 2.05315 8.27575 2.1012L6.37679 4.00016H3.71658C3.64172 4.00016 3.58026 4.02419 3.53221 4.07225C3.48415 4.1203 3.46012 4.18176 3.46012 4.25662V6.91683L1.56117 8.81579C1.51311 8.86384 1.48908 8.9253 1.48908 9.00016C1.48908 9.07502 1.51311 9.13648 1.56117 9.18454L3.46012 11.0835V13.7437C3.46012 13.8186 3.48415 13.88 3.53221 13.9281C3.58026 13.9761 3.64172 14.0002 3.71658 14.0002H6.37679Z" fill="white"/>
</svg>
