<svg width="20" height="20" viewBox="0 0 20 20" fill="none" xmlns="http://www.w3.org/2000/svg">
<rect width="20" height="20" rx="10" fill="#4B4444" fill-opacity="0.35"/>
<path d="M15 5.66699L14.5868 12.3504C14.4813 14.058 14.4285 14.9117 14.0005 15.5256C13.7889 15.8291 13.5164 16.0852 13.2005 16.2777C12.5614 16.667 11.706 16.667 9.99516 16.667C8.28208 16.667 7.42554 16.667 6.78604 16.2769C6.46987 16.0841 6.19733 15.8275 5.98579 15.5236C5.55792 14.9087 5.5063 14.0537 5.40307 12.3438L5 5.66699" stroke="white" stroke-width="1.5" stroke-linecap="round"/>
<path d="M4 5.66634H16M12.7038 5.66634L12.2487 4.72749C11.9464 4.10385 11.7952 3.79202 11.5345 3.59755C11.4766 3.55441 11.4154 3.51604 11.3513 3.48281C11.0626 3.33301 10.7161 3.33301 10.023 3.33301C9.31255 3.33301 8.95732 3.33301 8.66379 3.48909C8.59873 3.52368 8.53666 3.5636 8.4782 3.60845C8.21443 3.81081 8.06709 4.13404 7.7724 4.78051L7.36862 5.66634" stroke="white" stroke-width="1.5" stroke-linecap="round"/>
<path d="M8.33331 13L8.33331 9" stroke="white" stroke-width="1.5" stroke-linecap="round"/>
<path d="M11.6667 13L11.6667 9" stroke="white" stroke-width="1.5" stroke-linecap="round"/>
</svg>
