<svg width="13" height="12" viewBox="0 0 13 12" fill="none" xmlns="http://www.w3.org/2000/svg">
<path d="M0.647653 11.6668C0.534653 11.6668 0.433153 11.6392 0.343153 11.5839C0.253153 11.5287 0.183209 11.4559 0.13332 11.3654C0.0813199 11.2757 0.0527088 11.1784 0.0474866 11.0738C0.0422644 10.9691 0.0704865 10.8654 0.132153 10.7628L5.83932 0.904117C5.9011 0.80145 5.97832 0.725562 6.07099 0.676451C6.16376 0.627339 6.26143 0.602783 6.36399 0.602783C6.46654 0.602783 6.56421 0.627339 6.65699 0.676451C6.74965 0.725562 6.82688 0.80145 6.88865 0.904117L12.5958 10.7628C12.6575 10.8654 12.6857 10.9691 12.6805 11.0738C12.6753 11.1784 12.6467 11.2757 12.5947 11.3654C12.5448 11.4559 12.4748 11.5287 12.3848 11.5839C12.2948 11.6392 12.1933 11.6668 12.0803 11.6668H0.647653ZM1.33065 10.6668H11.3973L6.36399 2.00012L1.33065 10.6668ZM6.36399 9.87195C6.51654 9.87195 6.64443 9.82034 6.74765 9.71712C6.85088 9.61389 6.90249 9.48601 6.90249 9.33345C6.90249 9.18089 6.85088 9.05301 6.74765 8.94978C6.64443 8.84656 6.51654 8.79495 6.36399 8.79495C6.21143 8.79495 6.08354 8.84656 5.98032 8.94978C5.8771 9.05301 5.82549 9.18089 5.82549 9.33345C5.82549 9.48601 5.8771 9.61389 5.98032 9.71712C6.08354 9.82034 6.21143 9.87195 6.36399 9.87195ZM6.36415 8.12828C6.50593 8.12828 6.62465 8.08039 6.72032 7.98462C6.8161 7.88873 6.86399 7.76995 6.86399 7.62828V5.29495C6.86399 5.15328 6.81604 5.03456 6.72015 4.93878C6.62426 4.8429 6.50549 4.79495 6.36382 4.79495C6.22204 4.79495 6.10332 4.8429 6.00765 4.93878C5.91188 5.03456 5.86399 5.15328 5.86399 5.29495V7.62828C5.86399 7.76995 5.91193 7.88873 6.00782 7.98462C6.10371 8.08039 6.22249 8.12828 6.36415 8.12828Z" fill="white"/>
</svg>
