<svg width="16" height="18" viewBox="0 0 16 18" fill="none" xmlns="http://www.w3.org/2000/svg">
<path fill-rule="evenodd" clip-rule="evenodd" d="M15.0934 3.39193C15.4176 3.39193 15.6875 3.66109 15.6875 4.00359V4.32025C15.6875 4.65441 15.4176 4.93191 15.0934 4.93191H1.28238C0.957383 4.93191 0.6875 4.65441 0.6875 4.32025V4.00359C0.6875 3.66109 0.957383 3.39193 1.28238 3.39193H3.71214C4.20571 3.39193 4.63525 3.0411 4.74629 2.5461L4.87353 1.97777C5.07128 1.20361 5.72208 0.689453 6.46689 0.689453H9.90811C10.6448 0.689453 11.3029 1.20361 11.4934 1.93694L11.6295 2.54527C11.7397 3.0411 12.1693 3.39193 12.6637 3.39193H15.0934ZM13.859 14.9678C14.1127 12.6037 14.5568 6.98706 14.5568 6.93039C14.573 6.75873 14.5171 6.59623 14.4061 6.4654C14.2869 6.3429 14.1362 6.2704 13.9701 6.2704H2.41127C2.24431 6.2704 2.08546 6.3429 1.97524 6.4654C1.8634 6.59623 1.80829 6.75873 1.81639 6.93039C1.81788 6.9408 1.83382 7.13865 1.86046 7.46941C1.97882 8.93877 2.30847 13.0313 2.52149 14.9678C2.67224 16.3945 3.60832 17.2911 4.96422 17.3236C6.01052 17.3478 7.08844 17.3561 8.19066 17.3561C9.22886 17.3561 10.2833 17.3478 11.362 17.3236C12.7649 17.2995 13.7002 16.4186 13.859 14.9678Z" fill="white"/>
</svg>
