<svg width="16" height="18" viewBox="0 0 16 18" fill="none" xmlns="http://www.w3.org/2000/svg">
<path d="M3.19471 17.8542C2.69755 17.8542 2.27196 17.6772 1.91796 17.3232C1.56396 16.9692 1.38696 16.5436 1.38696 16.0465V3.35423H1.13696C0.924463 3.35423 0.74638 3.28231 0.602713 3.13848C0.45888 2.99464 0.386963 2.81648 0.386963 2.60398C0.386963 2.39131 0.45888 2.21323 0.602713 2.06973C0.74638 1.92606 0.924463 1.85423 1.13696 1.85423H4.88696C4.88696 1.60939 4.97321 1.40073 5.14571 1.22823C5.31805 1.05589 5.52663 0.969727 5.77146 0.969727H10.0025C10.2473 0.969727 10.4559 1.05589 10.6282 1.22823C10.8007 1.40073 10.887 1.60939 10.887 1.85423H14.637C14.8495 1.85423 15.0275 1.92614 15.1712 2.06998C15.315 2.21381 15.387 2.39198 15.387 2.60448C15.387 2.81714 15.315 2.99523 15.1712 3.13873C15.0275 3.28239 14.8495 3.35423 14.637 3.35423H14.387V16.0465C14.387 16.5436 14.21 16.9692 13.856 17.3232C13.502 17.6772 13.0764 17.8542 12.5792 17.8542H3.19471ZM12.887 3.35423H2.88696V16.0465C2.88696 16.1363 2.9158 16.2101 2.97346 16.2677C3.03113 16.3254 3.10488 16.3542 3.19471 16.3542H12.5792C12.669 16.3542 12.7428 16.3254 12.8005 16.2677C12.8581 16.2101 12.887 16.1363 12.887 16.0465V3.35423ZM6.04121 14.3542C6.25371 14.3542 6.4318 14.2824 6.57546 14.1387C6.71896 13.9949 6.79071 13.8167 6.79071 13.6042V6.10423C6.79071 5.89173 6.7188 5.71356 6.57496 5.56973C6.4313 5.42606 6.25313 5.35423 6.04046 5.35423C5.82796 5.35423 5.64988 5.42606 5.50621 5.56973C5.36271 5.71356 5.29096 5.89173 5.29096 6.10423V13.6042C5.29096 13.8167 5.3628 13.9949 5.50646 14.1387C5.6503 14.2824 5.82855 14.3542 6.04121 14.3542ZM9.73346 14.3542C9.94596 14.3542 10.124 14.2824 10.2677 14.1387C10.4112 13.9949 10.483 13.8167 10.483 13.6042V6.10423C10.483 5.89173 10.4111 5.71356 10.2675 5.56973C10.1236 5.42606 9.94538 5.35423 9.73271 5.35423C9.52021 5.35423 9.34213 5.42606 9.19846 5.56973C9.05496 5.71356 8.98321 5.89173 8.98321 6.10423V13.6042C8.98321 13.8167 9.05513 13.9949 9.19896 14.1387C9.34263 14.2824 9.5208 14.3542 9.73346 14.3542Z" fill="#FF3B30"/>
</svg>
