<svg width="33" height="32" viewBox="0 0 33 32" fill="none" xmlns="http://www.w3.org/2000/svg">
<rect x="0.207031" width="32" height="32" rx="16" fill="#FCEEE3"/>
<ellipse cx="22.4574" cy="19.7498" rx="2.08333" ry="2.08333" stroke="#F97316" stroke-width="1.5"/>
<ellipse cx="9.95736" cy="19.7498" rx="2.08333" ry="2.08333" stroke="#F97316" stroke-width="1.5"/>
<path d="M23.0697 12.5578C24.1376 13.8573 24.5086 15.0929 24.5402 15.7462C23.9818 15.4909 23.3549 15.3477 22.6924 15.3477C20.6548 15.3477 18.8256 16.7026 18.3888 18.5075C18.2844 18.939 18.2322 19.1547 18.1188 19.244C18.0054 19.3332 17.8226 19.3332 17.4569 19.3332H15.0578C14.6894 19.3332 14.5051 19.3332 14.3913 19.2427C14.2775 19.1523 14.2276 18.9372 14.1279 18.5072C13.7148 16.7255 12.038 15.1768 10.2923 15.308C10.1164 15.3213 10.0285 15.3279 9.96814 15.3144C9.90781 15.301 9.84706 15.2666 9.72556 15.198C9.37483 14.9999 9.0162 14.8118 8.67229 14.6021C8.19318 14.3098 7.89332 13.7961 7.87447 13.2352C7.86374 12.9159 8.04734 12.5987 8.4182 12.686L13.7688 13.9451C14.1707 14.0397 14.3717 14.087 14.5443 14.0548C14.717 14.0226 14.9287 13.8778 15.3521 13.5883C16.4257 12.8542 18.1271 12.1607 19.8232 12.7734C20.2875 12.9411 20.5196 13.0249 20.6519 13.0291C20.7841 13.0333 20.9779 12.9769 21.3656 12.8641C21.9933 12.6814 22.5841 12.5866 23.0697 12.5578ZM23.0697 12.5578C22.4003 11.7433 21.4571 10.9036 20.1521 10.1665" stroke="#F97316" stroke-width="1.5" stroke-linecap="round" stroke-linejoin="round"/>
</svg>
