<svg width="16" height="16" viewBox="0 0 16 16" fill="none" xmlns="http://www.w3.org/2000/svg">
<path d="M14.8457 13.816C15.3099 13.816 15.6875 14.1993 15.6875 14.6695C15.6874 15.1406 15.3099 15.522 14.8457 15.5221H10.0869C9.62291 15.5219 9.24528 15.1405 9.24513 14.6695C9.24513 14.1993 9.62282 13.8162 10.0869 13.816H14.8457ZM8.38869 1.31992C9.14918 0.34349 10.4759 0.25406 11.5459 1.10508L12.7744 2.08067C13.2785 2.47482 13.6145 2.99516 13.7295 3.5416C13.8621 4.1426 13.7211 4.73321 13.3233 5.24375L6.00099 14.7115C5.66502 15.1414 5.17013 15.3841 4.63966 15.3932L1.72072 15.4283C1.56175 15.4281 1.42891 15.3207 1.39357 15.1686L0.730484 12.2936C0.615551 11.7651 0.730563 11.2185 1.06642 10.7975L6.25783 4.07871C6.34626 3.97133 6.50526 3.95415 6.61134 4.03379L8.79591 5.77207C8.93736 5.88834 9.13177 5.95125 9.33498 5.92442C9.76825 5.87067 10.0598 5.47627 10.0156 5.05528C9.98914 4.84048 9.88349 4.66128 9.7422 4.52696C9.69799 4.49112 7.61916 2.82481 7.61916 2.82481C7.48657 2.7173 7.46032 2.51978 7.56642 2.38633L8.38869 1.31992Z" fill="white"/>
</svg>
