<svg width="24" height="24" viewBox="0 0 24 24" fill="none" xmlns="http://www.w3.org/2000/svg">
<rect width="24" height="24" rx="12" fill="#111214"/>
<mask id="mask0_1317_2991" style="mask-type:alpha" maskUnits="userSpaceOnUse" x="5" y="4" width="14" height="15">
<rect x="5" y="4.70898" width="14" height="14" fill="#D9D9D9"/>
</mask>
<g mask="url(#mask0_1317_2991)">
<path d="M8.52238 14.917L7.35454 16.0847C7.18859 16.2507 6.99769 16.2884 6.78186 16.1976C6.56612 16.1067 6.45825 15.943 6.45825 15.7067V7.22151C6.45825 6.92683 6.56034 6.67741 6.7645 6.47324C6.96867 6.26908 7.21809 6.16699 7.51277 6.16699H16.4871C16.7817 6.16699 17.0312 6.26908 17.2353 6.47324C17.4395 6.67741 17.5416 6.92683 17.5416 7.22151V13.8625C17.5416 14.1572 17.4395 14.4066 17.2353 14.6107C17.0312 14.8149 16.7817 14.917 16.4871 14.917H8.52238ZM8.14992 14.042H16.4871C16.532 14.042 16.5731 14.0233 16.6104 13.9858C16.6479 13.9485 16.6666 13.9074 16.6666 13.8625V7.22151C16.6666 7.1766 16.6479 7.13547 16.6104 7.09814C16.5731 7.06071 16.532 7.04199 16.4871 7.04199H7.51277C7.46786 7.04199 7.42673 7.06071 7.3894 7.09814C7.35197 7.13547 7.33325 7.1766 7.33325 7.22151V14.8498L8.14992 14.042ZM9.08325 12.7295H12.5833C12.7074 12.7295 12.8113 12.6876 12.895 12.6038C12.9788 12.5201 13.0208 12.4161 13.0208 12.292C13.0208 12.1678 12.9788 12.0639 12.895 11.9802C12.8113 11.8964 12.7074 11.8545 12.5833 11.8545H9.08325C8.9591 11.8545 8.85517 11.8964 8.77146 11.9802C8.68765 12.0639 8.64575 12.1678 8.64575 12.292C8.64575 12.4161 8.68765 12.5201 8.77146 12.6038C8.85517 12.6876 8.9591 12.7295 9.08325 12.7295ZM9.08325 10.9795H14.9166C15.0407 10.9795 15.1447 10.9376 15.2284 10.8538C15.3122 10.7701 15.3541 10.6661 15.3541 10.542C15.3541 10.4178 15.3122 10.3139 15.2284 10.2302C15.1447 10.1464 15.0407 10.1045 14.9166 10.1045H9.08325C8.9591 10.1045 8.85517 10.1464 8.77146 10.2302C8.68765 10.3139 8.64575 10.4178 8.64575 10.542C8.64575 10.6661 8.68765 10.7701 8.77146 10.8538C8.85517 10.9376 8.9591 10.9795 9.08325 10.9795ZM9.08325 9.22949H14.9166C15.0407 9.22949 15.1447 9.18759 15.2284 9.10378C15.3122 9.02008 15.3541 8.91614 15.3541 8.79199C15.3541 8.66784 15.3122 8.56391 15.2284 8.4802C15.1447 8.39639 15.0407 8.35449 14.9166 8.35449H9.08325C8.9591 8.35449 8.85517 8.39639 8.77146 8.4802C8.68765 8.56391 8.64575 8.66784 8.64575 8.79199C8.64575 8.91614 8.68765 9.02008 8.77146 9.10378C8.85517 9.18759 8.9591 9.22949 9.08325 9.22949Z" fill="#6FD299"/>
</g>
</svg>
