<svg width="29" height="29" viewBox="0 0 29 29" fill="none" xmlns="http://www.w3.org/2000/svg">
<rect x="28.7876" y="28.709" width="28" height="28" rx="14" transform="rotate(180 28.7876 28.709)" fill="#24262B"/>
<mask id="mask0_1316_2764" style="mask-type:alpha" maskUnits="userSpaceOnUse" x="6" y="3" width="17" height="17">
<rect x="6.7876" y="19.5352" width="16" height="16" transform="rotate(-90 6.7876 19.5352)" fill="#D9D9D9"/>
</mask>
<g mask="url(#mask0_1316_2764)">
<path d="M14.7876 17.4122L19.8094 12.3903C19.9419 12.2579 20.0978 12.1933 20.2773 12.1967C20.4568 12.2001 20.6128 12.2681 20.7453 12.4005C20.8777 12.5331 20.9439 12.6891 20.9439 12.8685C20.9439 13.0479 20.8777 13.2039 20.7453 13.3365L15.6414 18.4505C15.5209 18.5711 15.3858 18.6604 15.2363 18.7185C15.0867 18.7766 14.9372 18.8057 14.7876 18.8057C14.6381 18.8057 14.4885 18.7766 14.3389 18.7185C14.1894 18.6604 14.0543 18.5711 13.9338 18.4505L8.81961 13.3365C8.68716 13.2039 8.62266 13.0462 8.62611 12.8633C8.62955 12.6804 8.6975 12.5228 8.82994 12.3903C8.96239 12.2579 9.11839 12.1917 9.29794 12.1917C9.47739 12.1917 9.63333 12.2579 9.76577 12.3903L14.7876 17.4122Z" fill="white"/>
</g>
</svg>
