<svg width="29" height="29" viewBox="0 0 29 29" fill="none" xmlns="http://www.w3.org/2000/svg">
<rect x="0.0166016" y="0.708984" width="28" height="28" rx="14" fill="#24262B"/>
<mask id="mask0_1589_4038" style="mask-type:alpha" maskUnits="userSpaceOnUse" x="6" y="9" width="17" height="17">
<rect x="22.0166" y="9.5918" width="16" height="16" transform="rotate(90 22.0166 9.5918)" fill="#D9D9D9"/>
</mask>
<g mask="url(#mask0_1589_4038)">
<path d="M14.0166 11.7148L8.99476 16.7366C8.86231 16.8691 8.70637 16.9336 8.52692 16.9303C8.34737 16.9268 8.19137 16.8589 8.05893 16.7265C7.92648 16.5939 7.86026 16.4379 7.86026 16.2585C7.86026 16.079 7.92648 15.923 8.05893 15.7905L13.1628 10.6765C13.2833 10.5559 13.4184 10.4666 13.5679 10.4085C13.7175 10.3503 13.867 10.3213 14.0166 10.3213C14.1661 10.3213 14.3157 10.3503 14.4653 10.4085C14.6148 10.4666 14.7499 10.5559 14.8704 10.6765L19.9846 15.7905C20.117 15.923 20.1815 16.0807 20.1781 16.2636C20.1746 16.4465 20.1067 16.6042 19.9743 16.7366C19.8418 16.8691 19.6858 16.9353 19.5063 16.9353C19.3268 16.9353 19.1709 16.8691 19.0384 16.7366L14.0166 11.7148Z" fill="white"/>
</g>
</svg>
