<svg width="13" height="13" viewBox="0 0 13 13" fill="none" xmlns="http://www.w3.org/2000/svg">
<path fill-rule="evenodd" clip-rule="evenodd" d="M6.56469 4.86035C5.89969 4.86035 5.35919 5.40135 5.35919 6.06635C5.35919 6.73085 5.89969 7.27135 6.56469 7.27135C7.22969 7.27135 7.77069 6.73085 7.77069 6.06635C7.77069 5.40135 7.22969 4.86035 6.56469 4.86035ZM6.56469 8.02135C5.48619 8.02135 4.60919 7.14435 4.60919 6.06635C4.60919 4.98785 5.48619 4.11035 6.56469 4.11035C7.64319 4.11035 8.52069 4.98785 8.52069 6.06635C8.52069 7.14435 7.64319 8.02135 6.56469 8.02135Z" fill="white"/>
<mask id="mask0_2984_5944" style="mask-type:luminance" maskUnits="userSpaceOnUse" x="1" y="2" width="11" height="9">
<path fill-rule="evenodd" clip-rule="evenodd" d="M1.565 2.04004H11.5649V10.0925H1.565V2.04004Z" fill="white"/>
</mask>
<g mask="url(#mask0_2984_5944)">
<path fill-rule="evenodd" clip-rule="evenodd" d="M2.34988 6.06641C3.27988 8.12091 4.84638 9.34241 6.56488 9.34291C8.28338 9.34241 9.84988 8.12091 10.7799 6.06641C9.84988 4.01241 8.28338 2.79091 6.56488 2.79041C4.84688 2.79091 3.27988 4.01241 2.34988 6.06641ZM6.56588 10.0929H6.56388H6.56338C4.49538 10.0914 2.63838 8.64191 1.59538 6.21441C1.55488 6.11991 1.55488 6.01291 1.59538 5.91841C2.63838 3.49141 4.49588 2.04191 6.56338 2.04041C6.56438 2.03991 6.56438 2.03991 6.56488 2.04041C6.56588 2.03991 6.56588 2.03991 6.56638 2.04041C8.63438 2.04191 10.4914 3.49141 11.5344 5.91841C11.5754 6.01291 11.5754 6.11991 11.5344 6.21441C10.4919 8.64191 8.63438 10.0914 6.56638 10.0929H6.56588Z" fill="white"/>
</g>
</svg>
