<svg width="37" height="36" viewBox="0 0 37 36" fill="none" xmlns="http://www.w3.org/2000/svg">
<rect x="0.312988" width="36" height="36" rx="18" fill="#24262B"/>
<path d="M18.313 7C24.3881 7 29.313 11.9249 29.313 18C29.313 24.0751 24.3881 29 18.313 29C12.2379 29 7.31299 24.0751 7.31299 18C7.31299 11.9249 12.2379 7 18.313 7ZM16.313 20.75C15.8988 20.75 15.563 21.0858 15.563 21.5C15.563 21.9142 15.8988 22.25 16.313 22.25H20.313L20.3901 22.2461C20.7681 22.2075 21.063 21.8882 21.063 21.5C21.063 21.1118 20.7681 20.7925 20.3901 20.7539L20.313 20.75H16.313ZM15.313 17.25C14.8988 17.25 14.563 17.5858 14.563 18C14.563 18.4142 14.8988 18.75 15.313 18.75H21.313L21.3901 18.7461C21.7681 18.7075 22.063 18.3882 22.063 18C22.063 17.6118 21.7681 17.2925 21.3901 17.2539L21.313 17.25H15.313ZM14.313 13.75C13.8988 13.75 13.563 14.0858 13.563 14.5C13.563 14.9142 13.8988 15.25 14.313 15.25H22.313L22.3901 15.2461C22.7681 15.2075 23.063 14.8882 23.063 14.5C23.063 14.1118 22.7681 13.7925 22.3901 13.7539L22.313 13.75H14.313Z" fill="white"/>
</svg>
