<svg width="18" height="20" viewBox="0 0 18 20" fill="none" xmlns="http://www.w3.org/2000/svg">
<path d="M7.88809 19.5C7.54709 19.5 7.25259 19.3868 7.00459 19.1605C6.75643 18.9343 6.60543 18.6558 6.55159 18.325L6.30734 16.4538C6.03951 16.3641 5.76484 16.2385 5.48334 16.077C5.20201 15.9153 4.95043 15.7422 4.72859 15.5577L2.99584 16.2943C2.68168 16.4328 2.36601 16.4462 2.04884 16.3345C1.73151 16.223 1.48501 16.0205 1.30934 15.727L0.182344 13.773C0.00667709 13.4795 -0.0439062 13.1689 0.0305938 12.8413C0.104927 12.5138 0.275427 12.2436 0.542094 12.0308L2.04009 10.9058C2.01709 10.7571 2.00076 10.6077 1.99109 10.4578C1.98143 10.3078 1.97659 10.1583 1.97659 10.0095C1.97659 9.86733 1.98143 9.72283 1.99109 9.576C2.00076 9.42917 2.01709 9.26858 2.04009 9.09425L0.542094 7.96925C0.275427 7.75642 0.10651 7.48458 0.0353438 7.15375C-0.0358228 6.82308 0.0164271 6.51092 0.192094 6.21725L1.30934 4.29225C1.48501 4.00508 1.73151 3.80417 2.04884 3.6895C2.36601 3.57467 2.68168 3.5865 2.99584 3.725L4.71884 4.452C4.96001 4.261 5.21743 4.08633 5.49109 3.928C5.76476 3.76967 6.03368 3.64242 6.29784 3.54625L6.55159 1.675C6.60543 1.34417 6.75643 1.06567 7.00459 0.8395C7.25259 0.613167 7.54709 0.5 7.88809 0.5H10.1036C10.4446 0.5 10.7391 0.613167 10.9871 0.8395C11.2353 1.06567 11.3863 1.34417 11.4401 1.675L11.6843 3.55575C11.9843 3.66475 12.2558 3.792 12.4986 3.9375C12.7416 4.083 12.9868 4.2545 13.2343 4.452L15.0056 3.725C15.3196 3.5865 15.6353 3.57467 15.9526 3.6895C16.2699 3.80417 16.5163 4.00508 16.6918 4.29225L17.8093 6.227C17.985 6.5205 18.0356 6.83108 17.9611 7.15875C17.8868 7.48625 17.7163 7.75642 17.4496 7.96925L15.9131 9.123C15.9489 9.2845 15.9685 9.4355 15.9718 9.576C15.975 9.71633 15.9766 9.85767 15.9766 10C15.9766 10.1358 15.9733 10.274 15.9668 10.4145C15.9605 10.5548 15.9375 10.7154 15.8978 10.8963L17.4053 12.0308C17.672 12.2436 17.8442 12.5138 17.9218 12.8413C17.9993 13.1689 17.9503 13.4795 17.7746 13.773L16.6418 15.7172C16.4663 16.0109 16.2183 16.2135 15.8978 16.325C15.5773 16.4365 15.26 16.423 14.9458 16.2845L13.2343 15.548C12.9868 15.7455 12.7343 15.9202 12.4766 16.072C12.2189 16.224 11.9548 16.3481 11.6843 16.4443L11.4401 18.325C11.3863 18.6558 11.2353 18.9343 10.9871 19.1605C10.7391 19.3868 10.4446 19.5 10.1036 19.5H7.88809ZM7.99584 18H9.96134L10.3208 15.3212C10.8312 15.1879 11.2975 14.9985 11.7198 14.753C12.1423 14.5073 12.5498 14.1916 12.9421 13.8057L15.4266 14.85L16.4113 13.15L14.2421 11.5155C14.3254 11.2565 14.3821 11.0026 14.4121 10.7537C14.4423 10.5051 14.4573 10.2538 14.4573 10C14.4573 9.73967 14.4423 9.48842 14.4121 9.24625C14.3821 9.00392 14.3254 8.75642 14.2421 8.50375L16.4303 6.85L15.4458 5.15L12.9323 6.2095C12.5977 5.85183 12.1968 5.53583 11.7296 5.2615C11.2623 4.98717 10.7895 4.79292 10.3113 4.67875L9.99584 2H8.01134L7.68034 4.66925C7.17018 4.78975 6.69909 4.97433 6.26709 5.223C5.83493 5.47183 5.42268 5.79233 5.03034 6.1845L2.54584 5.15L1.56134 6.85L3.72084 8.4595C3.63751 8.69683 3.57918 8.94367 3.54584 9.2C3.51251 9.45633 3.49584 9.72617 3.49584 10.0095C3.49584 10.2698 3.51251 10.525 3.54584 10.775C3.57918 11.025 3.63434 11.2718 3.71134 11.5155L1.56134 13.15L2.54584 14.85L5.02084 13.8C5.40034 14.1897 5.80609 14.5089 6.23809 14.7578C6.67026 15.0064 7.14784 15.1974 7.67084 15.3307L7.99584 18ZM9.00734 13C9.83934 13 10.5473 12.708 11.1313 12.124C11.7153 11.54 12.0073 10.832 12.0073 10C12.0073 9.168 11.7153 8.46 11.1313 7.876C10.5473 7.292 9.83934 7 9.00734 7C8.16501 7 7.45443 7.292 6.87559 7.876C6.29676 8.46 6.00734 9.168 6.00734 10C6.00734 10.832 6.29676 11.54 6.87559 12.124C7.45443 12.708 8.16501 13 9.00734 13Z" fill="white"/>
</svg>
