<svg width="37" height="36" viewBox="0 0 37 36" fill="none" xmlns="http://www.w3.org/2000/svg">
<rect x="0.312988" width="36" height="36" rx="18" fill="#24262B"/>
<path d="M15.2595 9.35461C16.4485 8.88184 20.7071 8.88175 21.8953 9.35461C22.5437 9.6127 22.9813 10.1009 23.3835 10.8312L23.8357 11.6984C23.846 11.7155 23.8555 11.7313 23.864 11.7443L23.9021 11.796C24.108 12.0204 24.4528 12.1562 24.6804 12.1564C26.8324 12.1564 28.5779 13.9015 28.5779 16.0529V21.8478C28.5778 24.5918 26.3522 26.8174 23.6082 26.8175H13.5476C10.8029 26.8174 8.57797 24.5921 8.57788 21.8478V16.0529C8.57788 13.9015 10.3233 12.1564 12.4753 12.1564C12.7021 12.1562 13.0474 12.0202 13.2537 11.796C13.2577 11.7915 13.263 11.785 13.2693 11.7765L13.321 11.6974L13.7712 10.8322C14.1732 10.1017 14.6108 9.61289 15.2595 9.35461ZM21.2214 10.7091C20.1923 10.4182 16.6124 10.4309 15.8142 10.7482C15.5612 10.8489 15.3354 11.1011 15.0857 11.5548L14.7009 12.2989L14.6062 12.4708C14.5272 12.6022 14.4484 12.7133 14.3582 12.8116C13.8518 13.362 13.1025 13.6562 12.4753 13.6564L12.3103 13.6622C11.0634 13.7468 10.0779 14.7852 10.0779 16.0529V21.8478C10.078 23.7638 11.6314 25.3174 13.5476 25.3175H23.6082C25.5238 25.3174 27.0778 23.7634 27.0779 21.8478V16.0529C27.0779 14.73 26.0041 13.6564 24.6804 13.6564L24.5066 13.6495C23.9181 13.6011 23.2574 13.3116 22.7976 12.8107C22.7085 12.7136 22.6291 12.6032 22.5505 12.4728C22.5393 12.4541 22.5255 12.4295 22.5095 12.4005L22.3933 12.1827L22.0691 11.5548C21.8192 11.1013 21.5936 10.8489 21.3406 10.7482L21.2214 10.7091Z" fill="white"/>
<path d="M24.0821 14.5C24.6344 14.5 25.0821 14.9477 25.0821 15.5C25.0821 16.0128 24.6961 16.4355 24.1987 16.4933L24.0821 16.5C23.5208 16.5 23.0731 16.0523 23.0731 15.5C23.0731 14.9872 23.4592 14.5645 23.9565 14.5067L24.0821 14.5Z" fill="white"/>
<path d="M18.5773 15.1992C20.7474 15.1992 22.5068 16.9578 22.507 19.1279C22.507 21.2981 20.7475 23.0576 18.5773 23.0576C16.4072 23.0575 14.6486 21.298 14.6486 19.1279C14.6487 16.9579 16.4073 15.1994 18.5773 15.1992ZM18.5773 16.6992C17.2357 16.6994 16.1487 17.7864 16.1486 19.1279C16.1486 20.4696 17.2356 21.5575 18.5773 21.5576C19.9191 21.5576 21.007 20.4697 21.007 19.1279C21.0068 17.7863 19.919 16.6992 18.5773 16.6992Z" fill="white"/>
</svg>
