<svg width="17" height="16" viewBox="0 0 17 16" fill="none" xmlns="http://www.w3.org/2000/svg">
<path d="M8.46033 11.9585C8.63756 11.9585 8.78596 11.8986 8.90554 11.7787C9.02526 11.659 9.08512 11.5106 9.08512 11.3335V7.79183C9.08512 7.61475 9.02519 7.46627 8.90533 7.34641C8.78547 7.22669 8.637 7.16683 8.45992 7.16683C8.28269 7.16683 8.13429 7.22669 8.01471 7.34641C7.89498 7.46627 7.83512 7.61475 7.83512 7.79183V11.3335C7.83512 11.5106 7.89505 11.659 8.01492 11.7787C8.13478 11.8986 8.28325 11.9585 8.46033 11.9585ZM8.46012 5.74058C8.65082 5.74058 8.81068 5.67607 8.93971 5.54704C9.06873 5.41801 9.13325 5.25815 9.13325 5.06745C9.13325 4.87676 9.06873 4.7169 8.93971 4.58787C8.81068 4.45898 8.65082 4.39454 8.46012 4.39454C8.26943 4.39454 8.10957 4.45898 7.98054 4.58787C7.85151 4.7169 7.787 4.87676 7.787 5.06745C7.787 5.25815 7.85151 5.41801 7.98054 5.54704C8.10957 5.67607 8.26943 5.74058 8.46012 5.74058ZM8.46158 15.9168C7.36658 15.9168 6.33735 15.7091 5.37387 15.2935C4.4104 14.8779 3.57235 14.314 2.85971 13.6016C2.14707 12.8893 1.58283 12.0516 1.167 11.0885C0.751304 10.1254 0.543457 9.09648 0.543457 8.00162C0.543457 6.90662 0.751235 5.87738 1.16679 4.91391C1.58235 3.95044 2.1463 3.11238 2.85867 2.39975C3.57103 1.68711 4.40873 1.12287 5.37179 0.707038C6.33485 0.291343 7.3638 0.0834961 8.45867 0.0834961C9.55367 0.0834961 10.5829 0.291274 11.5464 0.706829C12.5098 1.12238 13.3479 1.68634 14.0605 2.3987C14.7732 3.11107 15.3374 3.94877 15.7532 4.91183C16.1689 5.87489 16.3768 6.90384 16.3768 7.9987C16.3768 9.0937 16.169 10.1229 15.7535 11.0864C15.3379 12.0499 14.7739 12.8879 14.0616 13.6006C13.3492 14.3132 12.5115 14.8775 11.5485 15.2933C10.5854 15.709 9.55644 15.9168 8.46158 15.9168ZM8.46012 14.6668C10.3212 14.6668 11.8976 14.021 13.1893 12.7293C14.481 11.4377 15.1268 9.86127 15.1268 8.00016C15.1268 6.13905 14.481 4.56266 13.1893 3.271C11.8976 1.97933 10.3212 1.3335 8.46012 1.3335C6.59901 1.3335 5.02262 1.97933 3.73096 3.271C2.43929 4.56266 1.79346 6.13905 1.79346 8.00016C1.79346 9.86127 2.43929 11.4377 3.73096 12.7293C5.02262 14.021 6.59901 14.6668 8.46012 14.6668Z" fill="white"/>
</svg>
