<svg width="15" height="15" viewBox="0 0 15 15" fill="none" xmlns="http://www.w3.org/2000/svg">
<mask id="mask0_1338_4926" style="mask-type:alpha" maskUnits="userSpaceOnUse" x="0" y="0" width="15" height="15">
<rect x="0.96582" y="0.704102" width="14" height="14" fill="#D9D9D9"/>
</mask>
<g mask="url(#mask0_1338_4926)">
<path d="M7.38257 10.6211H8.54924V7.12109H7.38257V10.6211ZM7.9659 5.95443C8.13118 5.95443 8.26972 5.89852 8.38153 5.78672C8.49333 5.67491 8.54924 5.53637 8.54924 5.37109C8.54924 5.20582 8.49333 5.06727 8.38153 4.95547C8.26972 4.84366 8.13118 4.78776 7.9659 4.78776C7.80062 4.78776 7.66208 4.84366 7.55028 4.95547C7.43847 5.06727 7.38257 5.20582 7.38257 5.37109C7.38257 5.53637 7.43847 5.67491 7.55028 5.78672C7.66208 5.89852 7.80062 5.95443 7.9659 5.95443ZM7.9659 13.5378C7.15896 13.5378 6.40062 13.3846 5.6909 13.0784C4.98118 12.7721 4.36382 12.3565 3.83882 11.8315C3.31382 11.3065 2.89819 10.6891 2.59194 9.97943C2.28569 9.26971 2.13257 8.51137 2.13257 7.70443C2.13257 6.89748 2.28569 6.13915 2.59194 5.42943C2.89819 4.7197 3.31382 4.10234 3.83882 3.57734C4.36382 3.05234 4.98118 2.63672 5.6909 2.33047C6.40062 2.02422 7.15896 1.87109 7.9659 1.87109C8.77285 1.87109 9.53118 2.02422 10.2409 2.33047C10.9506 2.63672 11.568 3.05234 12.093 3.57734C12.618 4.10234 13.0336 4.7197 13.3399 5.42943C13.6461 6.13915 13.7992 6.89748 13.7992 7.70443C13.7992 8.51137 13.6461 9.26971 13.3399 9.97943C13.0336 10.6891 12.618 11.3065 12.093 11.8315C11.568 12.3565 10.9506 12.7721 10.2409 13.0784C9.53118 13.3846 8.77285 13.5378 7.9659 13.5378Z" fill="#F97316"/>
</g>
</svg>
