<svg width="23" height="24" viewBox="0 0 23 24" fill="none" xmlns="http://www.w3.org/2000/svg">
<path d="M22.2867 14.5691L14.405 22.4508C14.1931 22.6616 13.9546 22.8197 13.6896 22.9253C13.4245 23.0307 13.1603 23.0834 12.8968 23.0834C12.6331 23.0834 12.3695 23.0307 12.1058 22.9253C11.8421 22.8197 11.6049 22.6616 11.3941 22.4508L1.36752 12.4352C1.1686 12.2439 1.01635 12.0193 0.910769 11.7615C0.80538 11.5037 0.752686 11.2324 0.752686 10.9477V3.03687C0.752686 2.45393 0.958699 1.95479 1.37073 1.53946C1.78295 1.12432 2.28364 0.916748 2.87281 0.916748H10.7837C11.0654 0.916748 11.3383 0.973915 11.6024 1.08825C11.8666 1.20239 12.0956 1.3561 12.2893 1.54937L22.2867 11.5649C22.5004 11.7769 22.6563 12.0152 22.7543 12.2801C22.8523 12.5451 22.9013 12.8108 22.9013 13.0772C22.9013 13.3436 22.8523 13.6055 22.7543 13.863C22.6563 14.1206 22.5004 14.356 22.2867 14.5691ZM13.1576 21.2211L21.0393 13.3394C21.1139 13.2647 21.1513 13.1769 21.1513 13.0757C21.1513 12.9748 21.1139 12.887 21.0393 12.8124L10.9117 2.67783H2.87281C2.7682 2.67783 2.68031 2.71157 2.60914 2.77904C2.53817 2.84632 2.50269 2.93226 2.50269 3.03687V10.93C2.50269 10.9749 2.51017 11.0197 2.52514 11.0644C2.54012 11.1093 2.56627 11.1505 2.6036 11.1878L12.6302 21.2211C12.7051 21.296 12.793 21.3334 12.8939 21.3334C12.9948 21.3334 13.0827 21.296 13.1576 21.2211ZM5.44852 7.07529C5.8553 7.07529 6.20082 6.93354 6.4851 6.65004C6.76919 6.36654 6.91123 6.02218 6.91123 5.61696C6.91123 5.20882 6.76948 4.86193 6.48598 4.57629C6.20248 4.29046 5.85812 4.14754 5.45289 4.14754C5.04475 4.14754 4.69787 4.28997 4.41223 4.57483C4.12639 4.85969 3.98348 5.20561 3.98348 5.61258C3.98348 6.01936 4.12591 6.36489 4.41077 6.64916C4.69563 6.93325 5.04155 7.07529 5.44852 7.07529Z" fill="#FDBC3C"/>
</svg>
