<svg width="25" height="25" viewBox="0 0 25 25" fill="none" xmlns="http://www.w3.org/2000/svg">
<path fill-rule="evenodd" clip-rule="evenodd" d="M11.221 4.22796C10.5506 4.22796 9.98033 4.69378 9.82025 5.32163H15.2029C15.0429 4.69378 14.4726 4.22796 13.8022 4.22796H11.221ZM16.7237 5.32163H18.7047C20.8057 5.32163 22.5166 7.05327 22.5166 9.17984C22.5166 9.17984 22.4566 10.0801 22.4366 11.3338C22.4346 11.433 22.3865 11.5302 22.3075 11.5889C21.8263 11.9444 21.386 12.238 21.346 12.2583C19.6852 13.3722 17.7552 14.156 15.6992 14.5459C15.5651 14.5722 15.4331 14.5023 15.365 14.3828C14.7887 13.3844 13.7122 12.7343 12.5116 12.7343C11.319 12.7343 10.2325 13.3773 9.63916 14.3768C9.57013 14.4942 9.44006 14.5621 9.307 14.5368C7.26798 14.1459 5.33801 13.3631 3.68719 12.2684L2.72671 11.6001C2.64667 11.5494 2.59664 11.4583 2.59664 11.357C2.56663 10.8406 2.5166 9.17984 2.5166 9.17984C2.5166 7.05327 4.22746 5.32163 6.32851 5.32163H8.29949C8.48959 3.85328 9.7202 2.70898 11.221 2.70898H13.8022C15.303 2.70898 16.5336 3.85328 16.7237 5.32163ZM22.1764 13.5242L22.1364 13.5445C20.1154 14.9014 17.6842 15.8027 15.1329 16.1774C14.7727 16.228 14.4125 15.9951 14.3125 15.6305C14.0924 14.8002 13.382 14.2533 12.5316 14.2533H12.5216H12.5016C11.6512 14.2533 10.9408 14.8002 10.7207 15.6305C10.6207 15.9951 10.2605 16.228 9.90029 16.1774C7.34902 15.8027 4.9178 14.9014 2.89679 13.5445C2.88679 13.5343 2.78674 13.4736 2.7067 13.5242C2.61665 13.5749 2.61665 13.6964 2.61665 13.6964L2.68669 18.8609C2.68669 20.9875 4.38754 22.709 6.48859 22.709H18.5346C20.6357 22.709 22.3365 20.9875 22.3365 18.8609L22.4166 13.6964C22.4166 13.6964 22.4166 13.5749 22.3265 13.5242C22.2765 13.4938 22.2165 13.504 22.1764 13.5242ZM13.262 17.7672C13.262 18.1926 12.9318 18.5267 12.5116 18.5267C12.1014 18.5267 11.7612 18.1926 11.7612 17.7672V16.4609C11.7612 16.0457 12.1014 15.7014 12.5116 15.7014C12.9318 15.7014 13.262 16.0457 13.262 16.4609V17.7672Z" fill="white"/>
</svg>
