<svg width="25" height="24" viewBox="0 0 25 24" fill="none" xmlns="http://www.w3.org/2000/svg">
<path fill-rule="evenodd" clip-rule="evenodd" d="M17.7076 4.41C17.7076 3.08 18.7876 2 20.1176 2C21.4476 2 22.5276 3.08 22.5276 4.41C22.5276 5.74 21.4476 6.82 20.1176 6.82C18.7876 6.82 17.7076 5.74 17.7076 4.41ZM13.8575 14.7593L16.7475 11.0303L16.7075 11.0503C16.8675 10.8303 16.8975 10.5503 16.7875 10.3003C16.6785 10.0503 16.4375 9.8803 16.1785 9.8603C15.9075 9.8303 15.6385 9.9503 15.4775 10.1703L13.0585 13.3003L10.2875 11.1203C10.1175 10.9903 9.91753 10.9393 9.71753 10.9603C9.51853 10.9903 9.33853 11.0993 9.21753 11.2593L6.25853 15.1103L6.19753 15.2003C6.02753 15.5193 6.10753 15.9293 6.40753 16.1503C6.54753 16.2403 6.69753 16.3003 6.86753 16.3003C7.09853 16.3103 7.31753 16.1893 7.45753 16.0003L9.96753 12.7693L12.8175 14.9103L12.9075 14.9693C13.2275 15.1393 13.6275 15.0603 13.8575 14.7593ZM15.9775 3.7803C15.9375 4.0303 15.9175 4.2803 15.9175 4.5303C15.9175 6.7803 17.7375 8.5993 19.9775 8.5993C20.2275 8.5993 20.4675 8.5703 20.7175 8.5303V16.5993C20.7175 19.9903 18.7175 22.0003 15.3175 22.0003H7.92853C4.52753 22.0003 2.52753 19.9903 2.52753 16.5993V9.2003C2.52753 5.8003 4.52753 3.7803 7.92853 3.7803H15.9775Z" fill="#A0A0A0"/>
</svg>
