<svg width="25" height="24" viewBox="0 0 25 24" fill="none" xmlns="http://www.w3.org/2000/svg">
<path fill-rule="evenodd" clip-rule="evenodd" d="M18.1658 4.41C18.1658 3.08 19.2458 2 20.5758 2C21.9058 2 22.9858 3.08 22.9858 4.41C22.9858 5.74 21.9058 6.82 20.5758 6.82C19.2458 6.82 18.1658 5.74 18.1658 4.41ZM14.3157 14.7593L17.2057 11.0303L17.1657 11.0503C17.3257 10.8303 17.3557 10.5503 17.2457 10.3003C17.1367 10.0503 16.8957 9.8803 16.6367 9.8603C16.3657 9.8303 16.0967 9.9503 15.9357 10.1703L13.5167 13.3003L10.7457 11.1203C10.5757 10.9903 10.3757 10.9393 10.1757 10.9603C9.97672 10.9903 9.79672 11.0993 9.67572 11.2593L6.71672 15.1103L6.65572 15.2003C6.48572 15.5193 6.56572 15.9293 6.86572 16.1503C7.00572 16.2403 7.15572 16.3003 7.32572 16.3003C7.55672 16.3103 7.77572 16.1893 7.91572 16.0003L10.4257 12.7693L13.2757 14.9103L13.3657 14.9693C13.6857 15.1393 14.0857 15.0603 14.3157 14.7593ZM16.4357 3.7803C16.3957 4.0303 16.3757 4.2803 16.3757 4.5303C16.3757 6.7803 18.1957 8.5993 20.4357 8.5993C20.6857 8.5993 20.9257 8.5703 21.1757 8.5303V16.5993C21.1757 19.9903 19.1757 22.0003 15.7757 22.0003H8.38672C4.98572 22.0003 2.98572 19.9903 2.98572 16.5993V9.2003C2.98572 5.8003 4.98572 3.7803 8.38672 3.7803H16.4357Z" fill="white"/>
</svg>
