<svg width="24" height="25" viewBox="0 0 24 25" fill="none" xmlns="http://www.w3.org/2000/svg">
<rect y="0.679199" width="24" height="24" rx="12" fill="#FCEEE3"/>
<path fill-rule="evenodd" clip-rule="evenodd" d="M12.2006 9.8792C11.4286 9.8792 10.8006 10.5072 10.8006 11.28C10.8006 12.052 11.4286 12.6792 12.2006 12.6792C12.9726 12.6792 13.6006 12.052 13.6006 11.28C13.6006 10.5072 12.9726 9.8792 12.2006 9.8792ZM12.2006 13.8792C10.767 13.8792 9.60059 12.7136 9.60059 11.28C9.60059 9.8456 10.767 8.6792 12.2006 8.6792C13.6342 8.6792 14.8006 9.8456 14.8006 11.28C14.8006 12.7136 13.6342 13.8792 12.2006 13.8792Z" fill="#F97316"/>
<mask id="mask0_3128_6044" style="mask-type:luminance" maskUnits="userSpaceOnUse" x="5" y="4" width="14" height="17">
<path fill-rule="evenodd" clip-rule="evenodd" d="M5.60059 4.6792H18.8002V20.2792H5.60059V4.6792Z" fill="white"/>
</mask>
<g mask="url(#mask0_3128_6044)">
<path fill-rule="evenodd" clip-rule="evenodd" d="M12.1996 5.8792C9.22201 5.8792 6.79961 8.3248 6.79961 11.3296C6.79961 15.1528 11.2988 18.8776 12.1996 19.076C13.1004 18.8768 17.5996 15.152 17.5996 11.3296C17.5996 8.3248 15.1772 5.8792 12.1996 5.8792ZM12.1996 20.2792C10.7644 20.2792 5.59961 15.8376 5.59961 11.3296C5.59961 7.6624 8.56041 4.6792 12.1996 4.6792C15.8388 4.6792 18.7996 7.6624 18.7996 11.3296C18.7996 15.8376 13.6348 20.2792 12.1996 20.2792Z" fill="#F97316"/>
</g>
</svg>
