<svg width="14" height="12" viewBox="0 0 14 12" fill="none" xmlns="http://www.w3.org/2000/svg">
<path d="M11.9448 6.49992H4.58193C4.44004 6.49992 4.32121 6.45203 4.22543 6.35625C4.12977 6.26058 4.08193 6.14181 4.08193 5.99992C4.08193 5.85803 4.12977 5.73925 4.22543 5.64358C4.32121 5.54781 4.44004 5.49992 4.58193 5.49992H11.9448L11.0831 4.63842C10.984 4.5392 10.9351 4.42314 10.9364 4.29025C10.9377 4.15736 10.9865 4.0392 11.0831 3.93575C11.1865 3.83242 11.3054 3.77903 11.4396 3.77558C11.5737 3.77214 11.6925 3.82214 11.7959 3.92558L13.4484 5.57808C13.569 5.69864 13.6293 5.83925 13.6293 5.99992C13.6293 6.16058 13.569 6.3012 13.4484 6.42175L11.7959 8.07425C11.6968 8.17336 11.5791 8.22231 11.4428 8.22108C11.3064 8.21975 11.1865 8.16742 11.0831 8.06409C10.9865 7.96064 10.9365 7.84353 10.9331 7.71275C10.9298 7.58197 10.9798 7.46486 11.0831 7.36142L11.9448 6.49992ZM8.4986 3.41025V1.53842C8.4986 1.47853 8.47938 1.42936 8.44093 1.39092C8.40238 1.35247 8.35321 1.33325 8.29343 1.33325H1.90243C1.84254 1.33325 1.79338 1.35247 1.75493 1.39092C1.71649 1.42936 1.69727 1.47853 1.69727 1.53842V10.4614C1.69727 10.5213 1.71649 10.5705 1.75493 10.6089C1.79338 10.6474 1.84254 10.6666 1.90243 10.6666H8.29343C8.35321 10.6666 8.40238 10.6474 8.44093 10.6089C8.47938 10.5705 8.4986 10.5213 8.4986 10.4614V8.58959C8.4986 8.44781 8.54643 8.32903 8.6421 8.23325C8.73788 8.13759 8.85671 8.08975 8.9986 8.08975C9.14049 8.08975 9.25927 8.13759 9.35493 8.23325C9.45071 8.32903 9.4986 8.44781 9.4986 8.58959V10.4614C9.4986 10.7939 9.38082 11.0779 9.14527 11.3134C8.90982 11.5489 8.62588 11.6666 8.29343 11.6666H1.90243C1.56999 11.6666 1.28599 11.5489 1.05043 11.3134C0.814988 11.0779 0.697266 10.7939 0.697266 10.4614V1.53842C0.697266 1.20597 0.814988 0.921974 1.05043 0.686419C1.28599 0.450974 1.56999 0.333252 1.90243 0.333252H8.29343C8.62588 0.333252 8.90982 0.450974 9.14527 0.686419C9.38082 0.921974 9.4986 1.20597 9.4986 1.53842V3.41025C9.4986 3.55203 9.45071 3.67081 9.35493 3.76659C9.25927 3.86225 9.14049 3.91008 8.9986 3.91008C8.85671 3.91008 8.73788 3.86225 8.6421 3.76659C8.54643 3.67081 8.4986 3.55203 8.4986 3.41025Z" fill="white"/>
</svg>
