<svg width="25" height="25" viewBox="0 0 25 25" fill="none" xmlns="http://www.w3.org/2000/svg">
<mask id="mask0_928_2378" style="mask-type:alpha" maskUnits="userSpaceOnUse" x="0" y="0" width="25" height="25">
<rect x="0.259033" y="0.5" width="24" height="24" fill="#D9D9D9"/>
</mask>
<g mask="url(#mask0_928_2378)">
<path d="M4.56678 20C4.06162 20 3.63403 19.825 3.28403 19.475C2.93403 19.125 2.75903 18.6974 2.75903 18.1923V6.80775C2.75903 6.30258 2.93403 5.875 3.28403 5.525C3.63403 5.175 4.06162 5 4.56678 5H19.9513C20.4565 5 20.884 5.175 21.234 5.525C21.584 5.875 21.759 6.30258 21.759 6.80775V18.1923C21.759 18.6974 21.584 19.125 21.234 19.475C20.884 19.825 20.4565 20 19.9513 20H4.56678ZM20.259 7.94225L12.7455 12.752C12.6687 12.7955 12.5892 12.8298 12.507 12.8548C12.425 12.8798 12.3424 12.8923 12.259 12.8923C12.1757 12.8923 12.093 12.8798 12.011 12.8548C11.9289 12.8298 11.8494 12.7955 11.7725 12.752L4.25903 7.94225V18.1923C4.25903 18.2821 4.28787 18.3558 4.34553 18.4135C4.4032 18.4712 4.47695 18.5 4.56678 18.5H19.9513C20.0411 18.5 20.1149 18.4712 20.1725 18.4135C20.2302 18.3558 20.259 18.2821 20.259 18.1923V7.94225ZM12.259 11.5L20.1053 6.5H4.41278L12.259 11.5ZM4.25903 8.173V7.02975V7.0595V7.02775V8.173Z" fill="white"/>
</g>
</svg>
