<svg width="21" height="21" viewBox="0 0 21 21" fill="none" xmlns="http://www.w3.org/2000/svg">
<rect x="0.1875" y="0.0224609" width="20" height="20" rx="10" fill="#FCF1E8"/>
<mask id="mask0_1862_3413" style="mask-type:alpha" maskUnits="userSpaceOnUse" x="3" y="3" width="15" height="15">
<rect x="3.1875" y="3.02246" width="14" height="14" fill="#D9D9D9"/>
</mask>
<g mask="url(#mask0_1862_3413)">
<path d="M6.82208 10.8975C6.58146 10.8975 6.37549 10.8118 6.20419 10.6404C6.03278 10.4691 5.94708 10.2631 5.94708 10.0225C5.94708 9.78184 6.03278 9.57587 6.20419 9.40457C6.37549 9.23316 6.58146 9.14746 6.82208 9.14746C7.06271 9.14746 7.26872 9.23316 7.44012 9.40457C7.61143 9.57587 7.69708 9.78184 7.69708 10.0225C7.69708 10.2631 7.61143 10.4691 7.44012 10.6404C7.26872 10.8118 7.06271 10.8975 6.82208 10.8975ZM10.1875 10.8975C9.94685 10.8975 9.74089 10.8118 9.56958 10.6404C9.39818 10.4691 9.31248 10.2631 9.31248 10.0225C9.31248 9.78184 9.39818 9.57587 9.56958 9.40457C9.74089 9.23316 9.94685 9.14746 10.1875 9.14746C10.4281 9.14746 10.6341 9.23316 10.8054 9.40457C10.9768 9.57587 11.0625 9.78184 11.0625 10.0225C11.0625 10.2631 10.9768 10.4691 10.8054 10.6404C10.6341 10.8118 10.4281 10.8975 10.1875 10.8975ZM13.5529 10.8975C13.3122 10.8975 13.1062 10.8118 12.9348 10.6404C12.7635 10.4691 12.6779 10.2631 12.6779 10.0225C12.6779 9.78184 12.7635 9.57587 12.9348 9.40457C13.1062 9.23316 13.3122 9.14746 13.5529 9.14746C13.7935 9.14746 13.9995 9.23316 14.1708 9.40457C14.3422 9.57587 14.4279 9.78184 14.4279 10.0225C14.4279 10.2631 14.3422 10.4691 14.1708 10.6404C13.9995 10.8118 13.7935 10.8975 13.5529 10.8975Z" fill="#F97316"/>
</g>
</svg>
