<svg width="23" height="22" viewBox="0 0 23 22" fill="none" xmlns="http://www.w3.org/2000/svg">
<path d="M4.38094 18.4167L2.04527 20.7521C1.71335 21.0842 1.33156 21.1595 0.899894 20.9779C0.468422 20.7961 0.252686 20.4688 0.252686 19.9961V3.02579C0.252686 2.43643 0.456852 1.93758 0.865186 1.52925C1.27352 1.12091 1.77237 0.916748 2.36173 0.916748H20.3103C20.8997 0.916748 21.3985 1.12091 21.8069 1.52925C22.2152 1.93758 22.4194 2.43643 22.4194 3.02579V16.3077C22.4194 16.8971 22.2152 17.3959 21.8069 17.8042C21.3985 18.2126 20.8997 18.4167 20.3103 18.4167H4.38094ZM3.63602 16.6667H20.3103C20.4001 16.6667 20.4824 16.6293 20.5571 16.5545C20.6319 16.4798 20.6694 16.3975 20.6694 16.3077V3.02579C20.6694 2.93596 20.6319 2.85371 20.5571 2.77904C20.4824 2.70418 20.4001 2.66675 20.3103 2.66675H2.36173C2.27189 2.66675 2.18964 2.70418 2.11498 2.77904C2.04012 2.85371 2.00269 2.93596 2.00269 3.02579V18.2823L3.63602 16.6667ZM5.50269 14.0417H12.5027C12.751 14.0417 12.9589 13.9579 13.1263 13.7903C13.2939 13.6229 13.3777 13.4151 13.3777 13.1667C13.3777 12.9184 13.2939 12.7106 13.1263 12.5432C12.9589 12.3756 12.751 12.2917 12.5027 12.2917H5.50269C5.25438 12.2917 5.04652 12.3756 4.8791 12.5432C4.71149 12.7106 4.62769 12.9184 4.62769 13.1667C4.62769 13.4151 4.71149 13.6229 4.8791 13.7903C5.04652 13.9579 5.25438 14.0417 5.50269 14.0417ZM5.50269 10.5417H17.1694C17.4177 10.5417 17.6255 10.4579 17.7929 10.2903C17.9605 10.1229 18.0444 9.91505 18.0444 9.66675C18.0444 9.41844 17.9605 9.21058 17.7929 9.04316C17.6255 8.87555 17.4177 8.79175 17.1694 8.79175H5.50269C5.25438 8.79175 5.04652 8.87555 4.8791 9.04316C4.71149 9.21058 4.62769 9.41844 4.62769 9.66675C4.62769 9.91505 4.71149 10.1229 4.8791 10.2903C5.04652 10.4579 5.25438 10.5417 5.50269 10.5417ZM5.50269 7.04175H17.1694C17.4177 7.04175 17.6255 6.95794 17.7929 6.79033C17.9605 6.62291 18.0444 6.41505 18.0444 6.16675C18.0444 5.91844 17.9605 5.71058 17.7929 5.54316C17.6255 5.37555 17.4177 5.29175 17.1694 5.29175H5.50269C5.25438 5.29175 5.04652 5.37555 4.8791 5.54316C4.71149 5.71058 4.62769 5.91844 4.62769 6.16675C4.62769 6.41505 4.71149 6.62291 4.8791 6.79033C5.04652 6.95794 5.25438 7.04175 5.50269 7.04175Z" fill="#8E94F2"/>
</svg>
