<svg width="14" height="14" viewBox="0 0 14 14" fill="none" xmlns="http://www.w3.org/2000/svg">
<mask id="mask0_3126_5483" style="mask-type:alpha" maskUnits="userSpaceOnUse" x="0" y="0" width="14" height="14">
<rect width="14" height="14" fill="#D9D9D9"/>
</mask>
<g mask="url(#mask0_3126_5483)">
<path d="M4.22949 7.4375C4.10553 7.4375 4.00165 7.39555 3.91785 7.31165C3.83394 7.22774 3.79199 7.12381 3.79199 6.99985C3.79199 6.8758 3.83394 6.77192 3.91785 6.68821C4.00165 6.6044 4.10553 6.5625 4.22949 6.5625H9.77116C9.89512 6.5625 9.999 6.60445 10.0828 6.68835C10.1667 6.77226 10.2087 6.87619 10.2087 7.00015C10.2087 7.1242 10.1667 7.22808 10.0828 7.31179C9.999 7.3956 9.89512 7.4375 9.77116 7.4375H4.22949Z" fill="white"/>
</g>
</svg>
