<svg width="25" height="25" viewBox="0 0 25 25" fill="none" xmlns="http://www.w3.org/2000/svg">
<mask id="mask0_928_2447" style="mask-type:alpha" maskUnits="userSpaceOnUse" x="0" y="0" width="25" height="25">
<rect x="0.259033" y="0.5" width="24" height="24" fill="#D9D9D9"/>
</mask>
<g mask="url(#mask0_928_2447)">
<path d="M12.259 12.1921C11.2965 12.1921 10.4726 11.8495 9.78728 11.1641C9.10178 10.4786 8.75903 9.65464 8.75903 8.69214C8.75903 7.72964 9.10178 6.90572 9.78728 6.22039C10.4726 5.53489 11.2965 5.19214 12.259 5.19214C13.2215 5.19214 14.0455 5.53489 14.7308 6.22039C15.4163 6.90572 15.759 7.72964 15.759 8.69214C15.759 9.65464 15.4163 10.4786 14.7308 11.1641C14.0455 11.8495 13.2215 12.1921 12.259 12.1921ZM4.75903 18.2884V17.5844C4.75903 17.0947 4.89203 16.6412 5.15803 16.2239C5.42403 15.8066 5.77953 15.4857 6.22453 15.2614C7.21287 14.7769 8.20995 14.4135 9.21578 14.1711C10.2216 13.9288 11.236 13.8076 12.259 13.8076C13.282 13.8076 14.2964 13.9288 15.3023 14.1711C16.3081 14.4135 17.3052 14.7769 18.2935 15.2614C18.7385 15.4857 19.094 15.8066 19.36 16.2239C19.626 16.6412 19.759 17.0947 19.759 17.5844V18.2884C19.759 18.7101 19.6113 19.0687 19.3158 19.3644C19.0203 19.6599 18.6616 19.8076 18.2398 19.8076H6.27828C5.85645 19.8076 5.49778 19.6599 5.20228 19.3644C4.90678 19.0687 4.75903 18.7101 4.75903 18.2884ZM6.25903 18.3076H18.259V17.5844C18.259 17.3819 18.2004 17.1944 18.083 17.0219C17.9657 16.8496 17.8064 16.7089 17.6053 16.5999C16.7436 16.1756 15.8651 15.8541 14.9698 15.6354C14.0743 15.4169 13.1707 15.3076 12.259 15.3076C11.3474 15.3076 10.4438 15.4169 9.54828 15.6354C8.65295 15.8541 7.77445 16.1756 6.91278 16.5999C6.71162 16.7089 6.55237 16.8496 6.43503 17.0219C6.3177 17.1944 6.25903 17.3819 6.25903 17.5844V18.3076ZM12.259 10.6921C12.809 10.6921 13.2799 10.4963 13.6715 10.1046C14.0632 9.71297 14.259 9.24214 14.259 8.69214C14.259 8.14214 14.0632 7.67131 13.6715 7.27964C13.2799 6.88797 12.809 6.69214 12.259 6.69214C11.709 6.69214 11.2382 6.88797 10.8465 7.27964C10.4549 7.67131 10.259 8.14214 10.259 8.69214C10.259 9.24214 10.4549 9.71297 10.8465 10.1046C11.2382 10.4963 11.709 10.6921 12.259 10.6921Z" fill="white"/>
</g>
</svg>
