<svg width="11" height="14" viewBox="0 0 11 14" fill="none" xmlns="http://www.w3.org/2000/svg">
<path d="M0.864014 11.5898C0.722347 11.5898 0.603625 11.5419 0.507847 11.4461C0.411958 11.3502 0.364014 11.2314 0.364014 11.0896C0.364014 10.9479 0.411958 10.8292 0.507847 10.7334C0.603625 10.6377 0.722347 10.5899 0.864014 10.5899H1.56918V5.61542C1.56918 4.71886 1.8459 3.92614 2.39935 3.23725C2.95268 2.54836 3.66312 2.10775 4.53068 1.91541V1.50008C4.53068 1.26864 4.61163 1.07186 4.77351 0.909748C4.9354 0.747748 5.13196 0.666748 5.36318 0.666748C5.59451 0.666748 5.79135 0.747748 5.95368 0.909748C6.11613 1.07186 6.19735 1.26864 6.19735 1.50008V1.91541C7.0649 2.10775 7.77535 2.54836 8.32868 3.23725C8.88212 3.92614 9.15885 4.71886 9.15885 5.61542V10.5899H9.86401C10.0057 10.5899 10.1244 10.6378 10.2202 10.7336C10.3161 10.8295 10.364 10.9483 10.364 11.0901C10.364 11.2317 10.3161 11.3505 10.2202 11.4462C10.1244 11.5419 10.0057 11.5898 9.86401 11.5898H0.864014ZM5.36285 13.4616C5.03118 13.4616 4.74763 13.3436 4.51218 13.1076C4.27663 12.8716 4.15885 12.5879 4.15885 12.2564H6.56918C6.56918 12.589 6.45107 12.873 6.21485 13.1084C5.97862 13.3439 5.69462 13.4616 5.36285 13.4616ZM2.56918 10.5899H8.15885V5.61542C8.15885 4.84364 7.88601 4.18491 7.34035 3.63925C6.79457 3.09347 6.13579 2.82058 5.36401 2.82058C4.59224 2.82058 3.93346 3.09347 3.38768 3.63925C2.84201 4.18491 2.56918 4.84364 2.56918 5.61542V10.5899Z" fill="white"/>
</svg>
