<svg width="25" height="25" viewBox="0 0 25 25" fill="none" xmlns="http://www.w3.org/2000/svg">
<path fill-rule="evenodd" clip-rule="evenodd" d="M13.9666 5.58915H17.0366C20.7266 5.58915 22.5266 7.55916 22.5166 11.5992V16.4692C22.5166 20.3292 20.1366 22.7092 16.2666 22.7092H8.7566C4.9066 22.7092 2.5166 20.3292 2.5166 16.4592V8.94915C2.5166 4.80915 4.3566 2.70916 7.9866 2.70916H9.5666C10.4976 2.69916 11.3666 3.12916 11.9366 3.85916L12.8166 5.02916C13.0966 5.37915 13.5166 5.58915 13.9666 5.58915ZM7.8866 15.9992H17.1466C17.5566 15.9992 17.8866 15.6592 17.8866 15.2492C17.8866 14.8292 17.5566 14.4992 17.1466 14.4992H7.8866C7.4666 14.4992 7.1366 14.8292 7.1366 15.2492C7.1366 15.6592 7.4666 15.9992 7.8866 15.9992Z" fill="white"/>
</svg>
