<svg width="21" height="21" viewBox="0 0 21 21" fill="none" xmlns="http://www.w3.org/2000/svg">
<path fill-rule="evenodd" clip-rule="evenodd" d="M11.9666 3.58915H15.0366C18.7266 3.58915 20.5266 5.55916 20.5166 9.59916V14.4692C20.5166 18.3292 18.1366 20.7092 14.2666 20.7092H6.7566C2.9066 20.7092 0.516602 18.3292 0.516602 14.4592V6.94915C0.516602 2.80915 2.3566 0.709155 5.9866 0.709155H7.5666C8.4976 0.699155 9.3666 1.12916 9.9366 1.85916L10.8166 3.02916C11.0966 3.37915 11.5166 3.58915 11.9666 3.58915ZM5.8866 13.9992H15.1466C15.5566 13.9992 15.8866 13.6592 15.8866 13.2492C15.8866 12.8292 15.5566 12.4992 15.1466 12.4992H5.8866C5.4666 12.4992 5.1366 12.8292 5.1366 13.2492C5.1366 13.6592 5.4666 13.9992 5.8866 13.9992Z" fill="#A0A0A0"/>
</svg>
