<svg width="33" height="32" viewBox="0 0 33 32" fill="none" xmlns="http://www.w3.org/2000/svg">
<rect x="0.5" width="32" height="32" rx="16" fill="#FCEEE3"/>
<path fill-rule="evenodd" clip-rule="evenodd" d="M21.3077 12.9848H24.8337C24.8337 10.1538 23.1374 8.5 20.2633 8.5H12.7374C9.86329 8.5 8.16699 10.1538 8.16699 12.9487V19.0513C8.16699 21.8462 9.86329 23.5 12.7374 23.5H20.2633C23.1374 23.5 24.8337 21.8462 24.8337 19.0513V18.7913H21.3077C19.6713 18.7913 18.3448 17.4979 18.3448 15.9025C18.3448 14.3071 19.6713 13.0137 21.3077 13.0137V12.9848ZM21.3077 14.227H24.2114C24.5551 14.227 24.8337 14.4986 24.8337 14.8337V16.9425C24.8297 17.2759 24.5534 17.5452 24.2114 17.5491H21.3744C20.546 17.56 19.8216 17.007 19.6337 16.2203C19.5396 15.7319 19.6717 15.228 19.9946 14.8435C20.3174 14.4591 20.7981 14.2334 21.3077 14.227ZM21.4337 16.4441H21.7077C22.0596 16.4441 22.3448 16.1661 22.3448 15.8231C22.3448 15.48 22.0596 15.202 21.7077 15.202H21.4337C21.2654 15.2 21.1033 15.2639 20.9836 15.3792C20.864 15.4945 20.7966 15.6518 20.7966 15.8158C20.7966 16.16 21.0806 16.4402 21.4337 16.4441ZM12.1151 12.9848H16.8188C17.1707 12.9848 17.4559 12.7068 17.4559 12.3637C17.4559 12.0207 17.1707 11.7427 16.8188 11.7427H12.1151C11.7662 11.7426 11.4822 12.0163 11.4781 12.3565C11.4781 12.7007 11.7621 12.9809 12.1151 12.9848Z" fill="#F97316"/>
</svg>
