<svg width="33" height="32" viewBox="0 0 33 32" fill="none" xmlns="http://www.w3.org/2000/svg">
<rect x="0.5" width="32" height="32" rx="16" fill="#FCEEE3"/>
<g clip-path="url(#clip0_3263_6082)">
<path d="M11.621 24.7121C10.9957 24.5561 16.6224 17.9935 15.685 15.3388C15.2157 13.9321 10.5264 14.0881 10.5264 13.6201C10.5264 13.1521 19.5957 11.9041 20.4517 13.0735C21.7837 14.7161 12.4024 25.0255 11.621 24.7121Z" fill="#EE312A"/>
<path d="M22.5611 9.55886C22.5611 10.6802 21.6517 11.5895 20.5291 11.5895C19.4064 11.5895 18.4971 10.6802 18.4971 9.55886C18.4971 8.43752 19.4064 7.52686 20.5291 7.52686C21.6517 7.52686 22.5611 8.43619 22.5611 9.55886Z" fill="#EE312A"/>
</g>
<defs>
<clipPath id="clip0_3263_6082">
<rect width="20" height="20" fill="white" transform="translate(6.45703 6)"/>
</clipPath>
</defs>
</svg>
