<svg width="33" height="32" viewBox="0 0 33 32" fill="none" xmlns="http://www.w3.org/2000/svg">
<rect x="0.5" width="32" height="32" rx="16" fill="#FCEEE3"/>
<g clip-path="url(#clip0_3132_6835)">
<path d="M23.281 7.88379H9.23705C8.76105 7.88379 8.37305 8.27579 8.37305 8.75446V10.3225C8.37305 10.8011 8.76238 11.1931 9.23705 11.1931H23.2384C23.7144 11.1931 24.1024 10.8011 24.1024 10.3225V8.75446C24.145 8.27579 23.757 7.88379 23.281 7.88379Z" fill="#0BA4DB"/>
<path d="M23.281 16.6387H9.23705C8.76105 16.6387 8.37305 17.0307 8.37305 17.5093V19.0773C8.37305 19.556 8.76238 19.948 9.23705 19.948H23.2384C23.7144 19.948 24.1024 19.556 24.1024 19.0773V17.5093C24.145 17.0307 23.757 16.6387 23.281 16.6387Z" fill="#0BA4DB"/>
<path d="M17.145 21.0371H9.23705C8.76105 21.0371 8.37305 21.4291 8.37305 21.9078V23.4758C8.37305 23.9544 8.76238 24.3464 9.23705 24.3464H17.145C17.621 24.3464 18.009 23.9544 18.009 23.4758V21.9078C18.009 21.4291 17.6197 21.0371 17.145 21.0371Z" fill="#0BA4DB"/>
<path d="M24.1464 12.2827H9.23705C8.76105 12.2827 8.37305 12.6747 8.37305 13.1534V14.7214C8.37305 15.2 8.76238 15.592 9.23705 15.592H24.145C24.621 15.592 25.009 15.2 25.009 14.7214V13.1534C25.009 12.6747 24.6197 12.2827 24.145 12.2827H24.1464Z" fill="#0BA4DB"/>
</g>
<defs>
<clipPath id="clip0_3132_6835">
<rect width="20" height="20" fill="white" transform="translate(6.29297 6)"/>
</clipPath>
</defs>
</svg>
