<svg width="13" height="12" viewBox="0 0 13 12" fill="none" xmlns="http://www.w3.org/2000/svg">
<path d="M1.90243 11.6666C1.56999 11.6666 1.28599 11.5489 1.05043 11.3134C0.814988 11.0779 0.697266 10.7939 0.697266 10.4614V1.53842C0.697266 1.20597 0.814988 0.921974 1.05043 0.686419C1.28599 0.450974 1.56999 0.333252 1.90243 0.333252H10.8254C11.1579 0.333252 11.4419 0.450974 11.6774 0.686419C11.9129 0.921974 12.0306 1.20597 12.0306 1.53842V3.35258H11.0306V1.53842C11.0306 1.47853 11.0114 1.42936 10.9729 1.39092C10.9345 1.35247 10.8853 1.33325 10.8254 1.33325H1.90243C1.84254 1.33325 1.79338 1.35247 1.75493 1.39092C1.71649 1.42936 1.69727 1.47853 1.69727 1.53842V10.4614C1.69727 10.5213 1.71649 10.5705 1.75493 10.6089C1.79338 10.6474 1.84254 10.6666 1.90243 10.6666H10.8254C10.8853 10.6666 10.9345 10.6474 10.9729 10.6089C11.0114 10.5705 11.0306 10.5213 11.0306 10.4614V8.64725H12.0306V10.4614C12.0306 10.7939 11.9129 11.0779 11.6774 11.3134C11.4419 11.5489 11.1579 11.6666 10.8254 11.6666H1.90243ZM7.23577 8.99992C6.90332 8.99992 6.61932 8.8822 6.38377 8.64675C6.14832 8.4112 6.0306 8.1272 6.0306 7.79475V4.20509C6.0306 3.87264 6.14832 3.58864 6.38377 3.35309C6.61932 3.11764 6.90332 2.99992 7.23577 2.99992H11.4921C11.8245 2.99992 12.1085 3.11764 12.3441 3.35309C12.5795 3.58864 12.6973 3.87264 12.6973 4.20509V7.79475C12.6973 8.1272 12.5795 8.4112 12.3441 8.64675C12.1085 8.8822 11.8245 8.99992 11.4921 8.99992H7.23577ZM11.4921 7.99992C11.552 7.99992 11.6012 7.9807 11.6396 7.94225C11.678 7.90381 11.6973 7.85464 11.6973 7.79475V4.20509C11.6973 4.1452 11.678 4.09603 11.6396 4.05759C11.6012 4.01914 11.552 3.99992 11.4921 3.99992H7.23577C7.17588 3.99992 7.12671 4.01914 7.08827 4.05759C7.04982 4.09603 7.0306 4.1452 7.0306 4.20509V7.79475C7.0306 7.85464 7.04982 7.90381 7.08827 7.94225C7.12671 7.9807 7.17588 7.99992 7.23577 7.99992H11.4921ZM9.0306 6.99992C9.30838 6.99992 9.54449 6.9027 9.73893 6.70825C9.93338 6.51381 10.0306 6.2777 10.0306 5.99992C10.0306 5.72214 9.93338 5.48603 9.73893 5.29158C9.54449 5.09714 9.30838 4.99992 9.0306 4.99992C8.75282 4.99992 8.51671 5.09714 8.32227 5.29158C8.12782 5.48603 8.0306 5.72214 8.0306 5.99992C8.0306 6.2777 8.12782 6.51381 8.32227 6.70825C8.51671 6.9027 8.75282 6.99992 9.0306 6.99992Z" fill="white"/>
</svg>
