<svg width="11" height="10" viewBox="0 0 11 10" fill="none" xmlns="http://www.w3.org/2000/svg">
<path d="M5.36401 4.79484C4.72235 4.79484 4.17307 4.5664 3.71618 4.10951C3.25918 3.65251 3.03068 3.10317 3.03068 2.46151C3.03068 1.81984 3.25918 1.27056 3.71618 0.813674C4.17307 0.356674 4.72235 0.128174 5.36401 0.128174C6.00568 0.128174 6.55496 0.356674 7.01185 0.813674C7.46885 1.27056 7.69735 1.81984 7.69735 2.46151C7.69735 3.10317 7.46885 3.65251 7.01185 4.10951C6.55496 4.5664 6.00568 4.79484 5.36401 4.79484ZM0.364014 8.85901V8.38967C0.364014 8.06323 0.45268 7.7609 0.630014 7.48267C0.807347 7.20445 1.04435 6.99056 1.34101 6.84101C1.9999 6.51801 2.66462 6.27573 3.33518 6.11417C4.00574 5.95262 4.68201 5.87184 5.36401 5.87184C6.04601 5.87184 6.72229 5.95262 7.39285 6.11417C8.0634 6.27573 8.72813 6.51801 9.38701 6.84101C9.68368 6.99056 9.92068 7.20445 10.098 7.48267C10.2753 7.7609 10.364 8.06323 10.364 8.38967V8.85901C10.364 9.14012 10.2655 9.37923 10.0685 9.57634C9.87151 9.77334 9.6324 9.87184 9.35118 9.87184H1.37685C1.09562 9.87184 0.856514 9.77334 0.659514 9.57634C0.462514 9.37923 0.364014 9.14012 0.364014 8.85901ZM1.36401 8.87184H9.36401V8.38967C9.36401 8.25467 9.3249 8.12967 9.24668 8.01467C9.16846 7.89979 9.06229 7.80601 8.92818 7.73334C8.35374 7.45045 7.76807 7.23612 7.17118 7.09034C6.57418 6.94467 5.97179 6.87184 5.36401 6.87184C4.75624 6.87184 4.15385 6.94467 3.55685 7.09034C2.95996 7.23612 2.37429 7.45045 1.79985 7.73334C1.66574 7.80601 1.55957 7.89979 1.48135 8.01467C1.40312 8.12967 1.36401 8.25467 1.36401 8.38967V8.87184ZM5.36401 3.79484C5.73068 3.79484 6.04457 3.66428 6.30568 3.40317C6.56679 3.14206 6.69735 2.82817 6.69735 2.46151C6.69735 2.09484 6.56679 1.78095 6.30568 1.51984C6.04457 1.25873 5.73068 1.12817 5.36401 1.12817C4.99735 1.12817 4.68346 1.25873 4.42235 1.51984C4.16124 1.78095 4.03068 2.09484 4.03068 2.46151C4.03068 2.82817 4.16124 3.14206 4.42235 3.40317C4.68346 3.66428 4.99735 3.79484 5.36401 3.79484Z" fill="white"/>
</svg>
