<svg width="25" height="25" viewBox="0 0 25 25" fill="none" xmlns="http://www.w3.org/2000/svg">
<mask id="mask0_928_2495" style="mask-type:alpha" maskUnits="userSpaceOnUse" x="0" y="0" width="25" height="25">
<rect x="0.259033" y="0.5" width="24" height="24" fill="#D9D9D9"/>
</mask>
<g mask="url(#mask0_928_2495)">
<path d="M19.6993 21C17.8148 21 15.9215 20.5618 14.0195 19.6855C12.1177 18.8092 10.3703 17.573 8.77728 15.977C7.18445 14.3808 5.94987 12.6333 5.07353 10.7345C4.1972 8.83583 3.75903 6.94425 3.75903 5.05975C3.75903 4.75692 3.85903 4.50458 4.05903 4.30275C4.25903 4.10092 4.50903 4 4.80903 4H8.07053C8.32303 4 8.54578 4.08242 8.73878 4.24725C8.93178 4.41192 9.05453 4.61542 9.10703 4.85775L9.68028 7.8C9.71995 8.073 9.71162 8.30758 9.65528 8.50375C9.59878 8.69992 9.49745 8.86467 9.35128 8.998L7.04178 11.2462C7.41345 11.9269 7.83812 12.5708 8.31578 13.178C8.79328 13.785 9.31028 14.3648 9.86678 14.9173C10.4154 15.4661 10.9988 15.9757 11.6168 16.4462C12.2348 16.9167 12.9021 17.3546 13.6188 17.7598L15.8628 15.4963C16.0193 15.3334 16.2088 15.2193 16.4313 15.1538C16.6536 15.0884 16.8847 15.0724 17.1245 15.1058L19.9013 15.6713C20.1538 15.7379 20.3599 15.8667 20.5195 16.0577C20.6792 16.2487 20.759 16.4654 20.759 16.7078V19.95C20.759 20.25 20.6581 20.5 20.4563 20.7C20.2544 20.9 20.0021 21 19.6993 21ZM6.33203 9.827L8.11678 8.11925C8.14878 8.09358 8.16962 8.05833 8.17928 8.0135C8.18895 7.96867 8.18737 7.927 8.17453 7.8885L7.73978 5.65375C7.72695 5.60258 7.70453 5.56417 7.67253 5.5385C7.64053 5.51283 7.59887 5.5 7.54753 5.5H5.40903C5.37053 5.5 5.33845 5.51283 5.31278 5.5385C5.28728 5.56417 5.27453 5.59625 5.27453 5.63475C5.3257 6.31808 5.43753 7.01225 5.61003 7.71725C5.78237 8.42242 6.02303 9.12567 6.33203 9.827ZM15.032 18.4693C15.6949 18.7783 16.3862 19.0145 17.106 19.178C17.826 19.3413 18.4988 19.4384 19.1243 19.4693C19.1628 19.4693 19.1949 19.4564 19.2205 19.4307C19.2462 19.4051 19.259 19.373 19.259 19.3345V17.2308C19.259 17.1794 19.2462 17.1377 19.2205 17.1058C19.1949 17.0738 19.1564 17.0513 19.1053 17.0385L17.0053 16.6115C16.9668 16.5987 16.9331 16.5971 16.9043 16.6067C16.8755 16.6164 16.845 16.6372 16.8128 16.6692L15.032 18.4693Z" fill="white"/>
</g>
</svg>
