<svg width="19" height="12" viewBox="0 0 19 12" fill="none" xmlns="http://www.w3.org/2000/svg">
<path d="M4.61209 11.0802C4.01112 11.0802 3.50028 10.8699 3.07959 10.4493C2.6589 10.0286 2.44855 9.5178 2.44855 8.91683H2.32042C1.90612 8.91683 1.55146 8.76933 1.25646 8.47433C0.961465 8.17933 0.813965 7.82468 0.813965 7.41037V2.09329C0.813965 1.67551 0.961465 1.3194 1.25646 1.02495C1.55146 0.730649 1.90612 0.583496 2.32042 0.583496H12.7385C12.9365 0.583496 13.125 0.620301 13.3042 0.693913C13.4835 0.767524 13.6411 0.87176 13.7771 1.00662L17.6585 4.77579C17.8006 4.91259 17.9106 5.07391 17.9885 5.25975C18.0666 5.44572 18.1056 5.64127 18.1056 5.84641V7.41037C18.1056 7.82468 17.9581 8.17933 17.6631 8.47433C17.3681 8.76933 17.0135 8.91683 16.5992 8.91683C16.5992 9.5178 16.3888 10.0286 15.9681 10.4493C15.5474 10.8699 15.0367 11.0802 14.4358 11.0802C13.8349 11.0802 13.324 10.8699 12.9033 10.4493C12.4826 10.0286 12.2723 9.5178 12.2723 8.91683H6.77542C6.77542 9.51502 6.56515 10.0252 6.14459 10.4472C5.7239 10.8692 5.21306 11.0802 4.61209 11.0802ZM11.6473 4.57391H15.5896L12.8252 1.90558C12.7985 1.88419 12.7705 1.86683 12.741 1.8535C12.7116 1.84016 12.6809 1.8335 12.649 1.8335H11.6473V4.57391ZM6.85563 4.57391H10.3973V1.8335H6.85563V4.57391ZM2.06396 4.57391H5.60563V1.8335H2.32042C2.24556 1.8335 2.1841 1.85752 2.13605 1.90558C2.08799 1.95364 2.06396 2.01509 2.06396 2.08995V4.57391ZM4.61209 9.9585C4.90376 9.9585 5.15028 9.8578 5.35167 9.65641C5.55306 9.45502 5.65376 9.2085 5.65376 8.91683C5.65376 8.62516 5.55306 8.37863 5.35167 8.17725C5.15028 7.97586 4.90376 7.87516 4.61209 7.87516C4.32042 7.87516 4.0739 7.97586 3.87251 8.17725C3.67112 8.37863 3.57042 8.62516 3.57042 8.91683C3.57042 9.2085 3.67112 9.45502 3.87251 9.65641C4.0739 9.8578 4.32042 9.9585 4.61209 9.9585ZM14.4358 9.9585C14.7275 9.9585 14.974 9.8578 15.1754 9.65641C15.3768 9.45502 15.4775 9.2085 15.4775 8.91683C15.4775 8.62516 15.3768 8.37863 15.1754 8.17725C14.974 7.97586 14.7275 7.87516 14.4358 7.87516C14.1442 7.87516 13.8976 7.97586 13.6963 8.17725C13.4949 8.37863 13.3942 8.62516 13.3942 8.91683C13.3942 9.2085 13.4949 9.45502 13.6963 9.65641C13.8976 9.8578 14.1442 9.9585 14.4358 9.9585ZM6.33313 7.66683H12.7146C12.8919 7.41683 13.1294 7.20211 13.4269 7.02266C13.7245 6.84308 14.0608 6.75329 14.4358 6.75329C14.8108 6.75329 15.1431 6.83905 15.4325 7.01058C15.7221 7.18211 15.9635 7.40086 16.1569 7.66683H16.5992C16.674 7.66683 16.7355 7.6428 16.7835 7.59475C16.8316 7.54669 16.8556 7.48523 16.8556 7.41037V5.82391H2.06396V7.41037C2.06396 7.48523 2.08799 7.54669 2.13605 7.59475C2.1841 7.6428 2.24556 7.66683 2.32042 7.66683H2.89084C3.0682 7.41683 3.3057 7.20211 3.60334 7.02266C3.90084 6.84308 4.23709 6.75329 4.61209 6.75329C4.98709 6.75329 5.31931 6.83905 5.60876 7.01058C5.89834 7.18211 6.1398 7.40086 6.33313 7.66683Z" fill="white"/>
</svg>
