<svg width="17" height="20" viewBox="0 0 17 20" fill="none" xmlns="http://www.w3.org/2000/svg">
<mask id="mask0_2996_886" style="mask-type:luminance" maskUnits="userSpaceOnUse" x="0" y="12" width="17" height="8">
<path fill-rule="evenodd" clip-rule="evenodd" d="M0.314941 12.4961H16.1548V19.8701H0.314941V12.4961Z" fill="white"/>
</mask>
<g mask="url(#mask0_2996_886)">
<path fill-rule="evenodd" clip-rule="evenodd" d="M8.23585 13.9961C3.97485 13.9961 1.81485 14.7281 1.81485 16.1731C1.81485 17.6311 3.97485 18.3701 8.23585 18.3701C12.4958 18.3701 14.6549 17.6381 14.6549 16.1931C14.6549 14.7351 12.4958 13.9961 8.23585 13.9961ZM8.23585 19.8701C6.27685 19.8701 0.31485 19.8701 0.31485 16.1731C0.31485 12.8771 4.83585 12.4961 8.23585 12.4961C10.1948 12.4961 16.1549 12.4961 16.1549 16.1931C16.1549 19.4891 11.6348 19.8701 8.23585 19.8701Z" fill="#A0A0A0"/>
</g>
<mask id="mask1_2996_886" style="mask-type:luminance" maskUnits="userSpaceOnUse" x="2" y="0" width="12" height="11">
<path fill-rule="evenodd" clip-rule="evenodd" d="M2.9248 0H13.5448V10.6186H2.9248V0Z" fill="white"/>
</mask>
<g mask="url(#mask1_2996_886)">
<path fill-rule="evenodd" clip-rule="evenodd" d="M8.23584 1.428C6.09484 1.428 4.35284 3.169 4.35284 5.31C4.34584 7.444 6.07484 9.184 8.20684 9.192L8.23584 9.906V9.192C10.3758 9.192 12.1168 7.45 12.1168 5.31C12.1168 3.169 10.3758 1.428 8.23584 1.428ZM8.23584 10.619H8.20384C5.28184 10.61 2.91484 8.227 2.92484 5.307C2.92484 2.382 5.30684 0 8.23584 0C11.1638 0 13.5448 2.382 13.5448 5.31C13.5448 8.238 11.1638 10.619 8.23584 10.619Z" fill="#A0A0A0"/>
</g>
</svg>
