<svg width="21" height="24" viewBox="0 0 21 24" fill="none" xmlns="http://www.w3.org/2000/svg">
<path d="M3.02823 23.0833C2.44645 23.0833 1.94945 22.8772 1.53723 22.4652C1.1252 22.053 0.919189 21.556 0.919189 20.9742V7.69229C0.919189 7.11052 1.1252 6.61352 1.53723 6.20129C1.94945 5.78927 2.44645 5.58325 3.02823 5.58325H5.58586C5.58586 4.12647 6.09666 2.88728 7.11827 1.86567C8.13988 0.844057 9.37908 0.333252 10.8359 0.333252C12.2926 0.333252 13.5318 0.844057 14.5534 1.86567C15.5751 2.88728 16.0859 4.12647 16.0859 5.58325H18.6435C19.2253 5.58325 19.7223 5.78927 20.1345 6.20129C20.5465 6.61352 20.7525 7.11052 20.7525 7.69229V20.9742C20.7525 21.556 20.5465 22.053 20.1345 22.4652C19.7223 22.8772 19.2253 23.0833 18.6435 23.0833H3.02823ZM3.02823 21.3333H18.6435C18.7333 21.3333 18.8156 21.2958 18.8902 21.221C18.9651 21.1463 19.0025 21.064 19.0025 20.9742V7.69229C19.0025 7.60246 18.9651 7.52021 18.8902 7.44554C18.8156 7.37068 18.7333 7.33325 18.6435 7.33325H3.02823C2.9384 7.33325 2.85615 7.37068 2.78148 7.44554C2.70662 7.52021 2.66919 7.60246 2.66919 7.69229V20.9742C2.66919 21.064 2.70662 21.1463 2.78148 21.221C2.85615 21.2958 2.9384 21.3333 3.02823 21.3333ZM7.33586 5.58325H14.3359C14.3359 4.61103 13.9956 3.78464 13.315 3.10409C12.6345 2.42353 11.8081 2.08325 10.8359 2.08325C9.86363 2.08325 9.03724 2.42353 8.35669 3.10409C7.67613 3.78464 7.33586 4.61103 7.33586 5.58325ZM10.8178 13.7499C12.1371 13.7499 13.3221 13.3035 14.3729 12.4106C15.4237 11.5175 15.943 10.5042 15.931 9.37054C15.931 9.12963 15.8502 8.92429 15.6886 8.75454C15.5272 8.58479 15.3224 8.49992 15.0741 8.49992C14.8691 8.49992 14.6859 8.5706 14.5243 8.71196C14.3627 8.85332 14.2483 9.05039 14.181 9.30317C14.012 10.0944 13.6089 10.7417 12.9717 11.2451C12.3345 11.7483 11.6166 11.9999 10.8178 11.9999C10.0192 11.9999 9.29829 11.7483 8.65506 11.2451C8.01184 10.7417 7.61177 10.0944 7.45486 9.30317C7.38758 9.03833 7.27908 8.83825 7.12936 8.70292C6.97983 8.56759 6.80259 8.49992 6.59765 8.49992C6.34934 8.49992 6.14148 8.58479 5.97406 8.75454C5.80645 8.92429 5.72265 9.12963 5.72265 9.37054C5.72265 10.5042 6.24211 11.5175 7.28102 12.4106C8.31975 13.3035 9.49866 13.7499 10.8178 13.7499Z" fill="#FE724E"/>
</svg>
