<svg width="16" height="16" viewBox="0 0 16 16" fill="none" xmlns="http://www.w3.org/2000/svg">
<path d="M8 9.58643C8.87629 9.58643 9.58667 8.87605 9.58667 7.99976C9.58667 7.12346 8.87629 6.41309 8 6.41309C7.12371 6.41309 6.41333 7.12346 6.41333 7.99976C6.41333 8.87605 7.12371 9.58643 8 9.58643Z" fill="white"/>
<path opacity="0.4" d="M13.3334 12.5002C13.2268 12.5002 13.1268 12.4669 13.0334 12.4002C12.8134 12.2335 12.7668 11.9202 12.9334 11.7002C13.7401 10.6268 14.1668 9.34685 14.1668 8.00019C14.1668 6.65352 13.7401 5.37353 12.9334 4.3002C12.7668 4.0802 12.8134 3.76685 13.0334 3.60018C13.2534 3.43352 13.5668 3.48018 13.7334 3.70018C14.6734 4.94685 15.1668 6.43352 15.1668 8.00019C15.1668 9.56685 14.6734 11.0535 13.7334 12.3002C13.6334 12.4335 13.4868 12.5002 13.3334 12.5002Z" fill="white"/>
<path opacity="0.4" d="M2.66659 12.5002C2.51325 12.5002 2.36658 12.4335 2.26658 12.3002C1.32658 11.0535 0.833252 9.56685 0.833252 8.00019C0.833252 6.43352 1.32658 4.94685 2.26658 3.70018C2.43325 3.48018 2.74659 3.43352 2.96659 3.60018C3.18659 3.76685 3.23326 4.0802 3.06659 4.3002C2.25992 5.37353 1.83325 6.65352 1.83325 8.00019C1.83325 9.34685 2.25992 10.6268 3.06659 11.7002C3.23326 11.9202 3.18659 12.2335 2.96659 12.4002C2.87993 12.4669 2.77325 12.5002 2.66659 12.5002Z" fill="white"/>
<path opacity="0.4" d="M11.1999 10.8998C11.0932 10.8998 10.9932 10.8665 10.8999 10.7998C10.6799 10.6331 10.6332 10.3198 10.7999 10.0998C11.2599 9.49312 11.4999 8.76646 11.4999 7.99979C11.4999 7.23313 11.2599 6.50646 10.7999 5.8998C10.6332 5.6798 10.6799 5.36645 10.8999 5.19979C11.1199 5.03312 11.4332 5.0798 11.5999 5.2998C12.1865 6.08647 12.4999 7.01979 12.4999 7.99979C12.4999 8.97979 12.1865 9.91979 11.5999 10.6998C11.4999 10.8331 11.3532 10.8998 11.1999 10.8998Z" fill="white"/>
<path opacity="0.4" d="M4.80001 10.8998C4.64667 10.8998 4.5 10.8331 4.4 10.6998C3.81334 9.91312 3.5 8.97979 3.5 7.99979C3.5 7.01979 3.81334 6.0798 4.4 5.2998C4.56667 5.0798 4.88 5.03312 5.1 5.19979C5.32 5.36645 5.36666 5.6798 5.19999 5.8998C4.73999 6.50646 4.5 7.23313 4.5 7.99979C4.5 8.76646 4.73999 9.49312 5.19999 10.0998C5.36666 10.3198 5.32 10.6331 5.1 10.7998C5.01333 10.8665 4.90667 10.8998 4.80001 10.8998Z" fill="white"/>
</svg>
