<svg width="21" height="20" viewBox="0 0 21 20" fill="none" xmlns="http://www.w3.org/2000/svg">
<path d="M9.96086 18.1666V14.1684C8.94819 14.0218 8.05637 13.6258 7.2854 12.9805C6.51443 12.3351 5.99127 11.5241 5.71594 10.5474C4.3698 10.3873 3.23386 9.81597 2.30811 8.83325C1.38216 7.85053 0.919189 6.68386 0.919189 5.33325V4.52563C0.919189 3.9456 1.12569 3.44908 1.53869 3.03609C1.95169 2.62309 2.4482 2.41659 3.02823 2.41659H5.38402V2.19229C5.38402 1.61227 5.59052 1.11575 6.00352 0.702752C6.41652 0.289752 6.91304 0.083252 7.49306 0.083252H14.1786C14.7587 0.083252 15.2552 0.289752 15.6682 0.702752C16.0812 1.11575 16.2877 1.61227 16.2877 2.19229V2.41659H18.6435C19.2235 2.41659 19.72 2.62309 20.133 3.03609C20.546 3.44908 20.7525 3.9456 20.7525 4.52563V5.33325C20.7525 6.68386 20.2896 7.85053 19.3636 8.83325C18.4379 9.81597 17.3019 10.3873 15.9558 10.5474C15.6804 11.5241 15.1573 12.3351 14.3863 12.9805C13.6153 13.6258 12.7235 14.0218 11.7109 14.1684V18.1666H14.9866C15.2345 18.1666 15.4422 18.2505 15.6099 18.4183C15.7777 18.5861 15.8616 18.794 15.8616 19.0419C15.8616 19.29 15.7777 19.4978 15.6099 19.6652C15.4422 19.8328 15.2345 19.9166 14.9866 19.9166H6.68515C6.43723 19.9166 6.22947 19.8327 6.06186 19.6649C5.89405 19.4971 5.81015 19.2892 5.81015 19.0413C5.81015 18.7932 5.89405 18.5854 6.06186 18.418C6.22947 18.2504 6.43723 18.1666 6.68515 18.1666H9.96086ZM5.38402 8.66729V4.16658H3.02823C2.92343 4.16658 2.83738 4.20022 2.77011 4.2675C2.70283 4.33478 2.66919 4.42082 2.66919 4.52563V5.33325C2.66919 6.13942 2.9242 6.85215 3.43423 7.47146C3.94426 8.09057 4.59419 8.48918 5.38402 8.66729ZM10.8385 12.4905C11.8613 12.4905 12.7297 12.1327 13.4439 11.4171C14.1581 10.7016 14.5152 9.83279 14.5152 8.81079V2.19229C14.5152 2.08749 14.4816 2.00145 14.4143 1.93417C14.347 1.86689 14.2611 1.83325 14.1565 1.83325H7.51523C7.41062 1.83325 7.32468 1.86689 7.2574 1.93417C7.19012 2.00145 7.15648 2.08749 7.15648 2.19229V8.81079C7.15648 9.83279 7.51445 10.7016 8.2304 11.4171C8.94634 12.1327 9.8157 12.4905 10.8385 12.4905ZM16.2877 8.66729C17.0775 8.48918 17.7275 8.09057 18.2375 7.47146C18.7475 6.85215 19.0025 6.13942 19.0025 5.33325V4.52563C19.0025 4.42082 18.9689 4.33478 18.9016 4.2675C18.8343 4.20022 18.7483 4.16658 18.6435 4.16658H16.2877V8.66729Z" fill="#E0928E"/>
</svg>
