<svg width="15" height="15" viewBox="0 0 15 15" fill="none" xmlns="http://www.w3.org/2000/svg">
<rect width="15" height="15" rx="7.5" fill="#FCEEE3"/>
<path d="M7.5 3.4375C6.69652 3.4375 5.91107 3.67576 5.243 4.12215C4.57492 4.56855 4.05422 5.20302 3.74674 5.94535C3.43926 6.68767 3.35881 7.50451 3.51556 8.29255C3.67231 9.0806 4.05923 9.80447 4.62738 10.3726C5.19553 10.9408 5.9194 11.3277 6.70745 11.4844C7.4955 11.6412 8.31233 11.5607 9.05465 11.2533C9.79698 10.9458 10.4315 10.4251 10.8778 9.757C11.3242 9.08893 11.5625 8.30349 11.5625 7.5C11.5614 6.42291 11.133 5.39025 10.3714 4.62863C9.60975 3.86701 8.57709 3.43864 7.5 3.4375ZM9.2836 6.78359L7.0961 8.97109C7.06707 9.00015 7.03261 9.0232 6.99467 9.03893C6.95673 9.05465 6.91607 9.06275 6.875 9.06275C6.83393 9.06275 6.79327 9.05465 6.75533 9.03893C6.7174 9.0232 6.68293 9.00015 6.65391 8.97109L5.71641 8.03359C5.65777 7.97496 5.62483 7.89543 5.62483 7.8125C5.62483 7.72957 5.65777 7.65004 5.71641 7.59141C5.77505 7.53277 5.85458 7.49983 5.9375 7.49983C6.02043 7.49983 6.09996 7.53277 6.1586 7.59141L6.875 8.3082L8.84141 6.34141C8.87044 6.31237 8.90491 6.28934 8.94285 6.27363C8.98078 6.25791 9.02144 6.24983 9.0625 6.24983C9.10356 6.24983 9.14422 6.25791 9.18216 6.27363C9.22009 6.28934 9.25456 6.31237 9.2836 6.34141C9.31263 6.37044 9.33566 6.40491 9.35137 6.44284C9.36709 6.48078 9.37518 6.52144 9.37518 6.5625C9.37518 6.60356 9.36709 6.64422 9.35137 6.68216C9.33566 6.72009 9.31263 6.75456 9.2836 6.78359Z" fill="#F97316"/>
</svg>
