<svg width="21" height="21" viewBox="0 0 21 21" fill="none" xmlns="http://www.w3.org/2000/svg">
<path d="M18.578 2.65149C18.1611 2.22367 17.5442 2.06428 16.969 2.23206L3.55517 6.13277C2.94825 6.30139 2.51808 6.78541 2.40219 7.4003C2.28381 8.02609 2.69732 8.82049 3.23754 9.15268L7.43175 11.7305C7.86193 11.9948 8.41716 11.9285 8.77314 11.5695L13.5759 6.73676C13.8177 6.4851 14.2179 6.4851 14.4596 6.73676C14.7014 6.98003 14.7014 7.37429 14.4596 7.62595L9.64849 12.4595C9.29168 12.8177 9.22499 13.3755 9.4876 13.8084L12.0503 18.0446C12.3504 18.548 12.8673 18.8332 13.4342 18.8332C13.5009 18.8332 13.5759 18.8332 13.6426 18.8248C14.2929 18.7409 14.8098 18.2963 15.0015 17.6672L18.9781 4.2705C19.1532 3.70007 18.9948 3.07931 18.578 2.65149Z" fill="#F97316"/>
</svg>
