<svg width="11" height="11" viewBox="0 0 11 11" fill="none" xmlns="http://www.w3.org/2000/svg">
<path d="M5.46021 8.62566L2.86671 10.1897C2.77004 10.2461 2.67321 10.2698 2.57621 10.2608C2.47921 10.2518 2.39143 10.2192 2.31288 10.1628C2.23421 10.1064 2.17349 10.0327 2.13071 9.94166C2.08804 9.85066 2.08121 9.74999 2.11021 9.63966L2.79871 6.69483L0.509044 4.71283C0.423489 4.63849 0.368989 4.55238 0.345544 4.45449C0.321989 4.3566 0.328155 4.26149 0.364044 4.16916C0.399933 4.07694 0.451655 4.00155 0.519211 3.94299C0.586766 3.88444 0.6791 3.84616 0.796211 3.82816L3.81788 3.56416L4.99104 0.783325C5.03371 0.679881 5.09843 0.60338 5.18521 0.553825C5.27199 0.504269 5.36366 0.479492 5.46021 0.479492C5.55677 0.479492 5.64843 0.504269 5.73521 0.553825C5.82199 0.60338 5.88671 0.679881 5.92938 0.783325L7.10254 3.56416L10.1242 3.82816C10.2413 3.84616 10.3337 3.88444 10.4012 3.94299C10.4688 4.00155 10.5205 4.07694 10.5564 4.16916C10.5923 4.26149 10.5984 4.3566 10.5749 4.45449C10.5514 4.55238 10.4969 4.63849 10.4114 4.71283L8.12171 6.69483L8.81021 9.63966C8.83921 9.74999 8.83238 9.85066 8.78971 9.94166C8.74693 10.0327 8.68621 10.1064 8.60755 10.1628C8.52899 10.2192 8.44121 10.2518 8.34421 10.2608C8.24721 10.2698 8.15038 10.2461 8.05371 10.1897L5.46021 8.62566Z" fill="white"/>
</svg>
