<svg width="17" height="15" viewBox="0 0 17 15" fill="none" xmlns="http://www.w3.org/2000/svg">
<path d="M2.71464 14.7916C2.2938 14.7916 1.93755 14.6458 1.64589 14.3541C1.35422 14.0624 1.20839 13.7061 1.20839 13.2851V6.62804C0.872831 6.35249 0.620956 5.99485 0.452762 5.55513C0.284428 5.11554 0.280956 4.64096 0.442345 4.13138L1.28526 1.37804C1.39637 1.02763 1.58491 0.745058 1.85089 0.530336C2.117 0.315614 2.43484 0.208252 2.80443 0.208252H14.1794C14.5492 0.208252 14.8648 0.310822 15.1265 0.515961C15.3883 0.7211 15.579 1.00318 15.6986 1.36221L16.5576 4.13138C16.7189 4.64096 16.7155 5.11395 16.5471 5.55033C16.3789 5.98686 16.1271 6.35145 15.7915 6.64408V13.2851C15.7915 13.7061 15.6457 14.0624 15.354 14.3541C15.0623 14.6458 14.7061 14.7916 14.2853 14.7916H2.71464ZM10.3334 6.04158C10.7885 6.04158 11.1307 5.90242 11.3598 5.62409C11.589 5.34575 11.6828 5.04686 11.6411 4.72742L11.1346 1.45825H9.12485V4.74992C9.12485 5.10034 9.24346 5.40325 9.48068 5.65867C9.7179 5.91395 10.0021 6.04158 10.3334 6.04158ZM6.58339 6.04158C6.96686 6.04158 7.27797 5.91395 7.51672 5.65867C7.75561 5.40325 7.87505 5.10034 7.87505 4.74992V1.45825H5.86526L5.35901 4.7595C5.31401 5.05547 5.40693 5.34318 5.63776 5.62263C5.8686 5.90193 6.1838 6.04158 6.58339 6.04158ZM2.87505 6.04158C3.1838 6.04158 3.44929 5.93395 3.67151 5.71867C3.89373 5.50339 4.03103 5.23283 4.08339 4.907L4.5736 1.45825H2.80443C2.71359 1.45825 2.64151 1.47825 2.58818 1.51825C2.53471 1.55839 2.49464 1.61853 2.46797 1.69867L1.66651 4.41013C1.55651 4.76804 1.60839 5.12943 1.82214 5.49429C2.03575 5.85915 2.38672 6.04158 2.87505 6.04158ZM14.1251 6.04158C14.5759 6.04158 14.921 5.8645 15.1603 5.51034C15.3996 5.15617 15.4573 4.78943 15.3334 4.41013L14.4903 1.68263C14.4636 1.60249 14.4236 1.54506 14.3703 1.51034C14.3168 1.47561 14.2446 1.45825 14.1538 1.45825H12.4263L12.9165 4.907C12.9689 5.23283 13.1062 5.50339 13.3284 5.71867C13.5506 5.93395 13.8162 6.04158 14.1251 6.04158ZM2.71464 13.5416H14.2853C14.36 13.5416 14.4214 13.5176 14.4694 13.4695C14.5176 13.4214 14.5417 13.36 14.5417 13.2851V7.21783C14.4509 7.25103 14.375 7.27159 14.314 7.2795C14.2532 7.28756 14.1902 7.29158 14.1251 7.29158C13.7501 7.29158 13.4202 7.22374 13.1355 7.08804C12.8507 6.95235 12.5748 6.73492 12.3076 6.43575C12.0737 6.69645 11.797 6.90429 11.4776 7.05929C11.1581 7.21416 10.7938 7.29158 10.3846 7.29158C10.031 7.29158 9.69769 7.21811 9.38464 7.07117C9.07158 6.92436 8.77672 6.71256 8.50005 6.43575C8.24255 6.71256 7.95089 6.92436 7.62505 7.07117C7.29908 7.21811 6.96894 7.29158 6.63464 7.29158C6.25853 7.29158 5.90596 7.22346 5.57693 7.08721C5.2479 6.95096 4.95839 6.73381 4.70839 6.43575C4.35783 6.78617 4.03484 7.01645 3.73943 7.12659C3.44415 7.23659 3.15603 7.29158 2.87505 7.29158C2.80978 7.29158 2.74241 7.28756 2.67297 7.2795C2.60353 7.27159 2.53193 7.25103 2.45818 7.21783V13.2851C2.45818 13.36 2.48228 13.4214 2.53047 13.4695C2.57853 13.5176 2.63991 13.5416 2.71464 13.5416Z" fill="white"/>
</svg>
