<svg width="24" height="24" viewBox="0 0 24 24" fill="none" xmlns="http://www.w3.org/2000/svg">
<rect width="24" height="24" rx="12" fill="#111214"/>
<mask id="mask0_1317_2986" style="mask-type:alpha" maskUnits="userSpaceOnUse" x="5" y="4" width="14" height="15">
<rect x="5" y="4.70898" width="14" height="14" fill="#D9D9D9"/>
</mask>
<g mask="url(#mask0_1317_2986)">
<path d="M12.0012 13.7956C12.6622 13.7956 13.2236 13.5642 13.6855 13.1015C14.1473 12.6389 14.3782 12.077 14.3782 11.416C14.3782 10.755 14.1468 10.1936 13.6841 9.73178C13.2215 9.26997 12.6596 9.03907 11.9986 9.03907C11.3376 9.03907 10.7762 9.27041 10.3144 9.73309C9.85257 10.1958 9.62166 10.7576 9.62166 11.4186C9.62166 12.0796 9.853 12.6411 10.3157 13.1029C10.7784 13.5647 11.3402 13.7956 12.0012 13.7956ZM11.9999 12.9923C11.5624 12.9923 11.1905 12.8392 10.8843 12.5329C10.578 12.2267 10.4249 11.8548 10.4249 11.4173C10.4249 10.9798 10.578 10.6079 10.8843 10.3017C11.1905 9.99544 11.5624 9.84232 11.9999 9.84232C12.4374 9.84232 12.8093 9.99544 13.1155 10.3017C13.4218 10.6079 13.5749 10.9798 13.5749 11.4173C13.5749 11.8548 13.4218 12.2267 13.1155 12.5329C12.8093 12.8392 12.4374 12.9923 11.9999 12.9923ZM11.9999 15.5007C10.7719 15.5007 9.64879 15.1731 8.63058 14.5179C7.61237 13.8628 6.79964 13.0009 6.19239 11.9323C6.14378 11.8485 6.10825 11.764 6.08579 11.6789C6.06343 11.5939 6.05225 11.5066 6.05225 11.417C6.05225 11.3275 6.06343 11.2403 6.08579 11.1554C6.10825 11.0705 6.14378 10.9862 6.19239 10.9024C6.79964 9.83371 7.61237 8.97184 8.63058 8.31676C9.64879 7.66157 10.7719 7.33398 11.9999 7.33398C13.2279 7.33398 14.351 7.66157 15.3692 8.31676C16.3875 8.97184 17.2002 9.83371 17.8074 10.9024C17.856 10.9862 17.8916 11.0706 17.914 11.1557C17.9364 11.2408 17.9476 11.3281 17.9476 11.4176C17.9476 11.5072 17.9364 11.5944 17.914 11.6792C17.8916 11.7641 17.856 11.8485 17.8074 11.9323C17.2002 13.0009 16.3875 13.8628 15.3692 14.5179C14.351 15.1731 13.2279 15.5007 11.9999 15.5007ZM11.9999 14.6257C13.0985 14.6257 14.1072 14.3364 15.026 13.7579C15.9447 13.1795 16.6471 12.3993 17.1332 11.4173C16.6471 10.4354 15.9447 9.65517 15.026 9.07669C14.1072 8.49822 13.0985 8.20898 11.9999 8.20898C10.9013 8.20898 9.89262 8.49822 8.97387 9.07669C8.05512 9.65517 7.35269 10.4354 6.86658 11.4173C7.35269 12.3993 8.05512 13.1795 8.97387 13.7579C9.89262 14.3364 10.9013 14.6257 11.9999 14.6257Z" fill="#E0928E"/>
</g>
</svg>
