<svg width="25" height="25" viewBox="0 0 25 25" fill="none" xmlns="http://www.w3.org/2000/svg">
<rect x="0.0166016" y="0.708984" width="24" height="24" rx="12" fill="#111214"/>
<path d="M7.82112 17.6676C7.53023 17.6676 7.28173 17.5646 7.07562 17.3586C6.86961 17.1525 6.7666 16.904 6.7666 16.6131V8.8055C6.7666 8.51461 6.86961 8.26611 7.07562 8.06C7.28173 7.85398 7.53023 7.75098 7.82112 7.75098H15.6287C15.9196 7.75098 16.1681 7.85398 16.3742 8.06C16.5803 8.26611 16.6833 8.51461 16.6833 8.8055V10.3929H15.8083V8.8055C15.8083 8.75309 15.7914 8.71007 15.7578 8.67644C15.7242 8.6428 15.6812 8.62598 15.6287 8.62598H7.82112C7.76872 8.62598 7.7257 8.6428 7.69206 8.67644C7.65842 8.71007 7.6416 8.75309 7.6416 8.8055V16.6131C7.6416 16.6655 7.65842 16.7085 7.69206 16.7422C7.7257 16.7758 7.76872 16.7926 7.82112 16.7926H15.6287C15.6812 16.7926 15.7242 16.7758 15.7578 16.7422C15.7914 16.7085 15.8083 16.6655 15.8083 16.6131V15.0257H16.6833V16.6131C16.6833 16.904 16.5803 17.1525 16.3742 17.3586C16.1681 17.5646 15.9196 17.6676 15.6287 17.6676H7.82112ZM12.4878 15.3343C12.1969 15.3343 11.9484 15.2313 11.7423 15.0253C11.5363 14.8192 11.4333 14.5707 11.4333 14.2798V11.1388C11.4333 10.8479 11.5363 10.5994 11.7423 10.3933C11.9484 10.1873 12.1969 10.0843 12.4878 10.0843H16.2121C16.503 10.0843 16.7515 10.1873 16.9576 10.3933C17.1636 10.5994 17.2666 10.8479 17.2666 11.1388V14.2798C17.2666 14.5707 17.1636 14.8192 16.9576 15.0253C16.7515 15.2313 16.503 15.3343 16.2121 15.3343H12.4878ZM16.2121 14.4593C16.2645 14.4593 16.3075 14.4425 16.3411 14.4089C16.3748 14.3752 16.3916 14.3322 16.3916 14.2798V11.1388C16.3916 11.0864 16.3748 11.0434 16.3411 11.0098C16.3075 10.9761 16.2645 10.9593 16.2121 10.9593H12.4878C12.4354 10.9593 12.3924 10.9761 12.3587 11.0098C12.3251 11.0434 12.3083 11.0864 12.3083 11.1388V14.2798C12.3083 14.3322 12.3251 14.3752 12.3587 14.4089C12.3924 14.4425 12.4354 14.4593 12.4878 14.4593H16.2121ZM14.0583 13.5843C14.3013 13.5843 14.5079 13.4992 14.6781 13.3291C14.8482 13.159 14.9333 12.9524 14.9333 12.7093C14.9333 12.4663 14.8482 12.2597 14.6781 12.0895C14.5079 11.9194 14.3013 11.8343 14.0583 11.8343C13.8152 11.8343 13.6086 11.9194 13.4385 12.0895C13.2683 12.2597 13.1833 12.4663 13.1833 12.7093C13.1833 12.9524 13.2683 13.159 13.4385 13.3291C13.6086 13.4992 13.8152 13.5843 14.0583 13.5843Z" fill="#35C1B8"/>
</svg>
