<svg width="25" height="25" viewBox="0 0 25 25" fill="none" xmlns="http://www.w3.org/2000/svg">
<rect x="0.516602" y="0.708984" width="24" height="24" rx="12" fill="#111214"/>
<mask id="mask0_1316_2698" style="mask-type:alpha" maskUnits="userSpaceOnUse" x="5" y="5" width="15" height="15">
<rect x="5.5166" y="5.70898" width="14" height="14" fill="#D9D9D9"/>
</mask>
<g mask="url(#mask0_1316_2698)">
<path d="M10.3851 12.4168V10.0835C10.3851 9.89654 10.4505 9.73763 10.5814 9.60677C10.7122 9.47591 10.8712 9.41048 11.0581 9.41048C11.2451 9.41048 11.404 9.47591 11.5348 9.60677C11.6657 9.73763 11.7311 9.89654 11.7311 10.0835V12.4168C11.7311 12.6038 11.6657 12.7627 11.5348 12.8936C11.404 13.0244 11.2451 13.0899 11.0581 13.0899C10.8712 13.0899 10.7122 13.0244 10.5814 12.8936C10.4505 12.7627 10.3851 12.6038 10.3851 12.4168ZM13.111 12.7288V7.75017C13.111 7.56321 13.1764 7.4043 13.3073 7.27344C13.4382 7.14258 13.5971 7.07715 13.784 7.07715C13.971 7.07715 14.1299 7.14258 14.2608 7.27344C14.3916 7.4043 14.4571 7.56321 14.4571 7.75017V12.7288C14.4571 12.9531 14.388 13.1213 14.2498 13.2335C14.1117 13.3457 13.9567 13.4018 13.7849 13.4018C13.6131 13.4018 13.4579 13.3457 13.3191 13.2335C13.1804 13.1213 13.111 12.9531 13.111 12.7288ZM7.64795 14.3598V12.4168C7.64795 12.2299 7.71338 12.071 7.84424 11.9401C7.9751 11.8092 8.13401 11.7438 8.32097 11.7438C8.50793 11.7438 8.66684 11.8092 8.7977 11.9401C8.92856 12.071 8.99399 12.2299 8.99399 12.4168V14.3598C8.99399 14.5842 8.92491 14.7524 8.78676 14.8645C8.64851 14.9767 8.49349 15.0328 8.3217 15.0328C8.14991 15.0328 7.99464 14.9767 7.85591 14.8645C7.71727 14.7524 7.64795 14.5842 7.64795 14.3598ZM8.66441 17.8418C8.47278 17.8418 8.33905 17.7526 8.26322 17.5742C8.18729 17.3959 8.21923 17.2368 8.35903 17.0969L10.6947 14.7614C10.7904 14.6656 10.9068 14.6129 11.0441 14.6032C11.1813 14.5934 11.303 14.6365 11.4093 14.7322L13.111 16.1951L16.7143 12.5918H16.0164C15.8925 12.5918 15.7886 12.5499 15.7048 12.466C15.6209 12.3821 15.5789 12.2781 15.5789 12.1542C15.5789 12.0301 15.6209 11.9263 15.7048 11.8425C15.7886 11.7587 15.8925 11.7168 16.0164 11.7168H17.6768C17.8261 11.7168 17.9513 11.7673 18.0524 11.8684C18.1534 11.9695 18.2039 12.0947 18.2039 12.244V13.9043C18.2039 14.0283 18.162 14.1322 18.0781 14.216C17.9942 14.2999 17.8903 14.3418 17.7663 14.3418C17.6422 14.3418 17.5384 14.2999 17.4547 14.216C17.3709 14.1322 17.3289 14.0283 17.3289 13.9043V13.2065L13.4924 17.0431C13.3967 17.1389 13.2802 17.1916 13.1429 17.2013C13.0058 17.2111 12.884 17.168 12.7778 17.0723L11.0761 15.6094L8.97387 17.7118C8.93702 17.7478 8.89094 17.7785 8.83562 17.8039C8.78039 17.8292 8.72332 17.8418 8.66441 17.8418Z" fill="#A6F164"/>
</g>
</svg>
