<svg width="15" height="15" viewBox="0 0 15 15" fill="none" xmlns="http://www.w3.org/2000/svg">
<rect width="15" height="15" rx="7.5" fill="#FCEEE3"/>
<path d="M7.5 3.4375C6.69652 3.4375 5.91107 3.67576 5.243 4.12215C4.57492 4.56855 4.05422 5.20302 3.74674 5.94535C3.43926 6.68767 3.35881 7.50451 3.51556 8.29255C3.67231 9.0806 4.05923 9.80447 4.62738 10.3726C5.19553 10.9408 5.9194 11.3277 6.70745 11.4844C7.4955 11.6412 8.31233 11.5607 9.05465 11.2533C9.79698 10.9458 10.4315 10.4251 10.8778 9.757C11.3242 9.08893 11.5625 8.30349 11.5625 7.5C11.5614 6.42291 11.133 5.39025 10.3714 4.62863C9.60975 3.86701 8.57709 3.43864 7.5 3.4375ZM7.5 10.9375C6.82013 10.9375 6.15552 10.7359 5.59023 10.3582C5.02494 9.98046 4.58434 9.4436 4.32417 8.81547C4.06399 8.18735 3.99592 7.49619 4.12855 6.82938C4.26119 6.16257 4.58858 5.55006 5.06932 5.06932C5.55007 4.58858 6.16257 4.26119 6.82938 4.12855C7.49619 3.99591 8.18736 4.06399 8.81548 4.32416C9.4436 4.58434 9.98046 5.02493 10.3582 5.59023C10.7359 6.15552 10.9375 6.82013 10.9375 7.5C10.9365 8.41136 10.574 9.28511 9.92954 9.92954C9.28511 10.574 8.41137 10.9365 7.5 10.9375Z" fill="#F97316"/>
</svg>
