<svg width="25" height="25" viewBox="0 0 25 25" fill="none" xmlns="http://www.w3.org/2000/svg">
<mask id="mask0_928_2399" style="mask-type:alpha" maskUnits="userSpaceOnUse" x="0" y="0" width="25" height="25">
<rect x="0.259033" y="0.5" width="24" height="24" fill="#D9D9D9"/>
</mask>
<g mask="url(#mask0_928_2399)">
<path d="M18.1243 13.2308C18.3371 13.2308 18.5154 13.1589 18.659 13.0153C18.8025 12.8718 18.8743 12.6936 18.8743 12.4808C18.8743 12.2679 18.8025 12.0898 18.659 11.9463C18.5154 11.8026 18.3371 11.7308 18.1243 11.7308H15.086C14.8732 11.7308 14.695 11.8026 14.5513 11.9463C14.4078 12.0898 14.336 12.2679 14.336 12.4808C14.336 12.6936 14.4078 12.8718 14.5513 13.0153C14.695 13.1589 14.8732 13.2308 15.086 13.2308H18.1243ZM18.1243 10.3462C18.3371 10.3462 18.5154 10.2744 18.659 10.1307C18.8025 9.98725 18.8743 9.80908 18.8743 9.59625C18.8743 9.38342 18.8025 9.20517 18.659 9.0615C18.5154 8.918 18.3371 8.84625 18.1243 8.84625H15.086C14.8732 8.84625 14.695 8.918 14.5513 9.0615C14.4078 9.20517 14.336 9.38342 14.336 9.59625C14.336 9.80908 14.4078 9.98725 14.5513 10.1307C14.695 10.2744 14.8732 10.3462 15.086 10.3462H18.1243ZM9.29753 13.6538C8.7232 13.6538 8.21995 13.6999 7.78778 13.7923C7.35578 13.8846 6.97245 14.0314 6.63778 14.2327C6.33278 14.4109 6.10145 14.6103 5.94378 14.8308C5.78595 15.0513 5.70703 15.2878 5.70703 15.5402C5.70703 15.7148 5.77403 15.8606 5.90803 15.9777C6.04203 16.0951 6.20778 16.1538 6.40528 16.1538H12.1898C12.3873 16.1538 12.5529 16.0909 12.6868 15.9653C12.8208 15.8398 12.8878 15.6847 12.8878 15.5C12.8878 15.2743 12.8105 15.0554 12.656 14.8433C12.5015 14.6311 12.2685 14.4276 11.957 14.2327C11.6225 14.0314 11.2392 13.8846 10.807 13.7923C10.375 13.6999 9.87187 13.6538 9.29753 13.6538ZM9.29753 12.3463C9.78337 12.3463 10.1964 12.176 10.5368 11.8355C10.8773 11.4952 11.0475 11.0821 11.0475 10.5962C11.0475 10.1102 10.8773 9.69708 10.5368 9.35675C10.1964 9.01642 9.78337 8.84625 9.29753 8.84625C8.8117 8.84625 8.39853 9.01642 8.05803 9.35675C7.7177 9.69708 7.54753 10.1102 7.54753 10.5962C7.54753 11.0821 7.7177 11.4952 8.05803 11.8355C8.39853 12.176 8.8117 12.3463 9.29753 12.3463ZM4.56678 20C4.06162 20 3.63403 19.825 3.28403 19.475C2.93403 19.125 2.75903 18.6974 2.75903 18.1923V6.80775C2.75903 6.30258 2.93403 5.875 3.28403 5.525C3.63403 5.175 4.06162 5 4.56678 5H19.9513C20.4565 5 20.884 5.175 21.234 5.525C21.584 5.875 21.759 6.30258 21.759 6.80775V18.1923C21.759 18.6974 21.584 19.125 21.234 19.475C20.884 19.825 20.4565 20 19.9513 20H4.56678ZM4.56678 18.5H19.9513C20.0283 18.5 20.0988 18.4679 20.1628 18.4038C20.227 18.3398 20.259 18.2692 20.259 18.1923V6.80775C20.259 6.73075 20.227 6.66025 20.1628 6.59625C20.0988 6.53208 20.0283 6.5 19.9513 6.5H4.56678C4.48978 6.5 4.41928 6.53208 4.35528 6.59625C4.29112 6.66025 4.25903 6.73075 4.25903 6.80775V18.1923C4.25903 18.2692 4.29112 18.3398 4.35528 18.4038C4.41928 18.4679 4.48978 18.5 4.56678 18.5Z" fill="white"/>
</g>
</svg>
