<svg width="25" height="25" viewBox="0 0 25 25" fill="none" xmlns="http://www.w3.org/2000/svg">
<path d="M15.2471 6.56898V3.20898C15.2471 2.92898 15.0271 2.70898 14.7471 2.70898H10.2871C10.0071 2.70898 9.78711 2.92898 9.78711 3.20898V6.56898C9.78711 6.84898 10.0071 7.06898 10.2871 7.06898H14.7471C15.0271 7.06898 15.2471 6.84898 15.2471 6.56898Z" fill="white"/>
<path d="M7.76707 2.72871C5.20707 2.88871 3.45707 4.20871 2.80707 6.40871C2.70707 6.73871 2.94707 7.06871 3.28707 7.06871H7.78707C8.06707 7.06871 8.28707 6.84871 8.28707 6.56871V3.22871C8.28707 2.94871 8.04707 2.70871 7.76707 2.72871Z" fill="white"/>
<path d="M17.2671 2.71894C19.8271 2.87894 21.5771 4.19894 22.2271 6.39894C22.3271 6.72894 22.0871 7.05894 21.7471 7.05894H17.2471C16.9671 7.05894 16.7471 6.83894 16.7471 6.55894V3.21894C16.7471 2.93894 16.9871 2.69894 17.2671 2.71894Z" fill="white"/>
<path d="M22.5171 16.409C22.5171 16.399 22.5071 16.389 22.4971 16.379C22.4571 16.319 22.4071 16.259 22.3571 16.209C22.3471 16.199 22.3371 16.179 22.3271 16.169C21.5171 15.269 20.3271 14.709 19.0171 14.709C17.7571 14.709 16.6071 15.229 15.7871 16.069C14.9971 16.879 14.5171 17.989 14.5171 19.209C14.5171 20.049 14.7571 20.849 15.1671 21.529C15.3871 21.899 15.6671 22.239 15.9871 22.519C16.0071 22.529 16.0171 22.539 16.0271 22.549C16.0771 22.599 16.1271 22.639 16.1871 22.689C16.1871 22.689 16.1871 22.689 16.1971 22.689C16.2071 22.699 16.2171 22.709 16.2271 22.709C16.9771 23.339 17.9471 23.709 19.0171 23.709C20.6571 23.709 22.0871 22.829 22.8671 21.529C23.0971 21.139 23.2771 20.709 23.3871 20.259C23.4771 19.919 23.5171 19.569 23.5171 19.209C23.5171 18.149 23.1471 17.169 22.5171 16.409ZM20.6971 19.939H19.7671V20.909C19.7671 21.319 19.4271 21.659 19.0171 21.659C18.6071 21.659 18.2671 21.319 18.2671 20.909V19.939H17.3371C16.9271 19.939 16.5871 19.599 16.5871 19.189C16.5871 18.779 16.9271 18.439 17.3371 18.439H18.2671V17.549C18.2671 17.139 18.6071 16.799 19.0171 16.799C19.4271 16.799 19.7671 17.139 19.7671 17.549V18.439H20.6971C21.1071 18.439 21.4471 18.779 21.4471 19.189C21.4471 19.599 21.1171 19.939 20.6971 19.939Z" fill="white"/>
<path d="M22.5171 9.06934V13.4493C22.5171 13.8193 22.1271 14.0593 21.7971 13.8893C20.9571 13.4493 19.9971 13.2093 19.0171 13.2093C17.4071 13.2093 15.8371 13.8693 14.7171 15.0193C13.6171 16.1393 13.0171 17.6293 13.0171 19.2093C13.0171 20.0193 13.3371 21.0593 13.7371 21.9293C13.8971 22.2793 13.6571 22.7093 13.2671 22.7093H8.32709C5.11709 22.7093 2.51709 20.1093 2.51709 16.8993V9.06934C2.51709 8.78934 2.73709 8.56934 3.01709 8.56934H22.0171C22.2971 8.56934 22.5171 8.78934 22.5171 9.06934Z" fill="white"/>
</svg>
