<svg width="17" height="16" viewBox="0 0 17 16" fill="none" xmlns="http://www.w3.org/2000/svg">
<path fill-rule="evenodd" clip-rule="evenodd" d="M13.3077 4.98483H16.8337C16.8337 2.15383 15.1374 0.5 12.2633 0.5H4.73736C1.86329 0.5 0.166992 2.15383 0.166992 4.94872V11.0513C0.166992 13.8462 1.86329 15.5 4.73736 15.5H12.2633C15.1374 15.5 16.8337 13.8462 16.8337 11.0513V10.7913H13.3077C11.6713 10.7913 10.3448 9.49793 10.3448 7.9025C10.3448 6.30707 11.6713 5.01372 13.3077 5.01372V4.98483ZM13.3077 6.22701H16.2114C16.5551 6.22701 16.8337 6.49861 16.8337 6.83365V8.94246C16.8297 9.27588 16.5534 9.54521 16.2114 9.54911H13.3744C12.546 9.55998 11.8216 9.00698 11.6337 8.22027C11.5396 7.73191 11.6717 7.22797 11.9946 6.84351C12.3174 6.45906 12.7981 6.2334 13.3077 6.22701ZM13.4337 8.44415H13.7077C14.0596 8.44415 14.3448 8.16608 14.3448 7.82306C14.3448 7.48004 14.0596 7.20197 13.7077 7.20197H13.4337C13.2654 7.20004 13.1033 7.26387 12.9836 7.3792C12.864 7.49453 12.7966 7.65177 12.7966 7.81584C12.7966 8.16005 13.0806 8.44019 13.4337 8.44415ZM4.11514 4.98483H8.81884C9.17067 4.98483 9.45588 4.70676 9.45588 4.36375C9.45588 4.02073 9.17067 3.74266 8.81884 3.74266H4.11514C3.76619 3.74263 3.48216 4.01633 3.4781 4.35652C3.47808 4.70073 3.76212 4.98088 4.11514 4.98483Z" fill="#F97316"/>
</svg>
